<?xml version="1.0" standalone="no"?>
<!DOCTYPE svg PUBLIC "-//W3C//DTD SVG 1.1//EN" "http://www.w3.org/Graphics/SVG/1.1/DTD/svg11.dtd" >
<svg xmlns="http://www.w3.org/2000/svg">
<metadata>
Created by FontForge 20120731 at Mon Sep 26 10:47:22 2016
 By admin
</metadata>
<defs>
<font id="iconfont" horiz-adv-x="1024" >
  <font-face 
    font-family="iconfont"
    font-weight="500"
    font-stretch="normal"
    units-per-em="1024"
    panose-1="2 0 6 3 0 0 0 0 0 0"
    ascent="896"
    descent="-128"
    x-height="792"
    bbox="1.75 -160 1023.51 792"
    underline-thickness="50"
    underline-position="-100"
    unicode-range="U+0078-E677"
  />
<missing-glyph horiz-adv-x="374" 
d="M34 0v682h272v-682h-272zM68 34h204v614h-204v-614z" />
    <glyph glyph-name=".notdef" horiz-adv-x="374" 
d="M34 0v682h272v-682h-272zM68 34h204v614h-204v-614z" />
    <glyph glyph-name=".null" horiz-adv-x="0" 
 />
    <glyph glyph-name="nonmarkingreturn" horiz-adv-x="341" 
 />
    <glyph glyph-name="x" unicode="x" horiz-adv-x="1001" 
d="M281 543q-27 -1 -53 -1h-83q-18 0 -36.5 -6t-32.5 -18.5t-23 -32t-9 -45.5v-76h912v41q0 16 -0.5 30t-0.5 18q0 13 -5 29t-17 29.5t-31.5 22.5t-49.5 9h-133v-97h-438v97zM955 310v-52q0 -23 0.5 -52t0.5 -58t-10.5 -47.5t-26 -30t-33 -16t-31.5 -4.5q-14 -1 -29.5 -0.5
t-29.5 0.5h-32l-45 128h-439l-44 -128h-29h-34q-20 0 -45 1q-25 0 -41 9.5t-25.5 23t-13.5 29.5t-4 30v167h911zM163 247q-12 0 -21 -8.5t-9 -21.5t9 -21.5t21 -8.5q13 0 22 8.5t9 21.5t-9 21.5t-22 8.5zM316 123q-8 -26 -14 -48q-5 -19 -10.5 -37t-7.5 -25t-3 -15t1 -14.5
t9.5 -10.5t21.5 -4h37h67h81h80h64h36q23 0 34 12t2 38q-5 13 -9.5 30.5t-9.5 34.5q-5 19 -11 39h-368zM336 498v228q0 11 2.5 23t10 21.5t20.5 15.5t34 6h188q31 0 51.5 -14.5t20.5 -52.5v-227h-327z" />
    <glyph glyph-name="uniE600" unicode="&#xe600;" 
d="M161.5 507q6.5 0 11 5t4.5 11v0q1 17 1 33q16 -1 31 -1q105 0 188.5 34t114.5 87q32 -53 115.5 -87t188.5 -34q15 0 31 1v-33h1v-1q0 -6 4.5 -11t11 -5t11.5 5t5 11q0 3 -1 6l-2 63q-30 -4 -61 -4q-119 0 -203.5 42t-84.5 102v2q-2 14 -16 14t-15 -14h-1v-2
q0 -60 -84 -102t-203 -42q-32 0 -63 4v-32v0v-24v-9q-1 -1 -1 -3q0 -6 5 -11t11.5 -5zM943 286v158q0 6 -4.5 11t-11.5 5q-23 7 -62.5 17.5t-148 28t-200.5 17.5t-197 -16t-163 -32l-59 -15q-6 0 -11 -5t-5 -11v-160q0 -12 5 -16q47 -53 116 -111q50 -140 132 -222
t178.5 -82t178.5 82.5t132 221.5q30 26 58 54t41 43l13 15q1 1 1 2q6 3 7 10q1 2 0 5zM123 275q21 6 44 11q8 -38 18 -74q-33 31 -62 63zM512.5 -115q-107.5 0 -193.5 113.5t-121 294.5q174 39 318 39q142 0 311 -38q-35 -182 -121 -295.5t-193.5 -113.5zM839 210
q11 37 19 77q23 -6 44 -12q-29 -33 -63 -65zM911 305q-208 59 -395 59q-189 0 -403 -60v128q214 59 403 59q187 0 395 -59v-127z" />
    <glyph glyph-name="uniE601" unicode="&#xe601;" 
d="M931 369l-370 370q-5 9 -15 9l-276 -47q-7 0 -12 -5t-5 -12t5 -12t12 -5l272 45l366 -366q11 -11 23 0.5t0 22.5zM492 577q-6 8 -15 8l-273 -46l-86 86q-5 5 -12 5t-12 -5q-11 -12 0 -23l89 -88v-2l-47 -262q0 -2 1 -4q-3 -9 4 -16l372 -372q11 -11 23 0l325 326
q12 11 0 23zM524 -107l-355 356v1l42 236l105 -106q-16 -24 -13 -53.5t24 -49.5q24 -25 58 -25t58 24.5t24 58.5t-24 58q-21 21 -50.5 23.5t-52.5 -13.5l-107 107l239 40l354 -355zM350.5 369.5q14.5 14.5 34.5 14.5t34.5 -14.5t14.5 -35t-14.5 -35t-34.5 -14.5t-34.5 14.5
t-14.5 35t14.5 35z" />
    <glyph glyph-name="uniE602" unicode="&#xe602;" 
d="M892 317q0 7 -1 13h1q-4 103 -56 190t-139 139t-190 56v16q0 7 -4.5 11.5t-11 4.5t-11.5 -4.5t-5 -11.5v-16q-102 -4 -189 -56t-139 -139t-56 -190h1q-1 -6 -1 -13v-3q0 -6 4.5 -11t11 -5t11.5 5t5 11q0 2 -1 3h1q1 46 33.5 77.5t78.5 31.5t78.5 -31.5t33.5 -77.5v-1v-2
q0 -6 5 -11t11.5 -5t11 5t4.5 11q0 5 1 13q4 38 31 65.5t64 32.5v-495q0 -20 -14 -34.5t-34 -14.5t-34 14.5t-14 34.5v-2v2q0 6 -4.5 11t-11 5t-11.5 -5t-5 -11v-2q1 -33 24.5 -56t55.5 -23q36 0 58 16.5t22 48.5v511q38 -5 65 -32.5t31 -65.5l1 -13q0 -6 4.5 -11t11 -5
t11.5 5t5 11v2l-1 1h1q1 46 33.5 77.5t78.5 31.5t78.5 -31.5t33.5 -77.5v-3q0 -6 4.5 -11t11.5 -5t11.5 5t4.5 11v3zM355 394q-20 30 -51.5 47t-68.5 17q-55 0 -96 -36q32 107 120 178.5t201 81.5q-39 -48 -63 -102q-27 -60 -42 -186zM491.5 458q-60.5 0 -102.5 -42
q13 96 36 148q25 55 66 113q42 -58 66 -113q24 -52 37 -148q-42 42 -102.5 42zM748 458q-37 0 -68.5 -17t-51.5 -47q-15 126 -42 186q-25 54 -63 102q113 -10 201 -81.5t120 -178.5q-41 36 -96 36z" />
    <glyph glyph-name="uniE603" unicode="&#xe603;" 
d="M387 -68q-14 0 -23.5 -9.5t-9.5 -22.5t9.5 -22.5t23.5 -9.5t23.5 9.5t9.5 22.5t-9.5 22.5t-23.5 9.5zM720 525h-45l-97 -98v226q0 6 -5 11t-11.5 5t-11 -5t-4.5 -11v-226l-98 98h-45l159 -159zM866 541h-80q-7 0 -11.5 -5t-4.5 -11.5t4.5 -11t11.5 -4.5h80q26 0 45 -19
t19 -45v-193q0 -26 -19 -45t-45 -19h-496q-7 0 -11.5 -4.5t-4.5 -11t4.5 -11.5t11.5 -5h496q40 0 68 28.5t28 67.5v193q0 39 -28 67.5t-68 28.5zM882 60h-496q-52 0 -90.5 38t-38.5 90l-12 77l-47 244h140q6 0 11 4.5t5 11t-5 11.5t-11 5h-146l-8 44v2l-1 1q0 4 -3 7
q-23 48 -72 66q-5 2 -9 2q-1 0 -1 0.5t-1 0.5v-1q-6 0 -10 -4.5t-4 -11t4 -11t10 -4.5q37 -13 55 -48v-2l75 -397q-1 -6 -1 -13q0 -59 42 -101t101 -43h1h512q7 0 11.5 5t4.5 11.5t-4.5 11t-11.5 4.5zM801 -68q-14 0 -23.5 -9.5t-9.5 -22.5t9.5 -22.5t23.5 -9.5t23.5 9.5
t9.5 22.5t-9.5 22.5t-23.5 9.5z" />
    <glyph glyph-name="uniE604" unicode="&#xe604;" 
d="M955 -121l-221 222l-2 2q101 110 101 260q0 105 -51.5 193.5t-140 140t-193 51.5t-193 -51.5t-140 -140t-51.5 -193t51.5 -193t140 -140t193.5 -51.5q150 0 260 101l2 -2l222 -221q11 -12 22.5 -0.5t-0.5 22.5zM448.5 11q-95.5 0 -177 47t-128.5 128.5t-47 177t47 177
t128.5 128.5t177 47t177 -47t128.5 -128.5t47 -177t-47 -177t-128.5 -128.5t-177 -47z" />
    <glyph glyph-name="uniE605" unicode="&#xe605;" 
d="M801 -68q-14 0 -23.5 -9.5t-9.5 -22.5t9.5 -22.5t23.5 -9.5t23.5 9.5t9.5 22.5t-9.5 22.5t-23.5 9.5zM866 541h-674l-8 44v2l-1 1q0 4 -3 7q-23 48 -72 66q-5 2 -9 2q-1 0 -1 0.5t-1 0.5v-1q-6 0 -10 -4.5t-4 -11t4 -11t10 -4.5q37 -13 55 -48v-2l75 -397q-1 -6 -1 -13
q0 -59 42 -101t101 -43h1h512q7 0 11.5 5t4.5 11.5t-4.5 11t-11.5 4.5h-496q-52 0 -90.5 38t-38.5 90l-12 77l-47 244h668q26 0 45 -19t19 -45v-193q0 -26 -19 -45t-45 -19h-496q-7 0 -11.5 -4.5t-4.5 -11t4.5 -11.5t11.5 -5h496q40 0 68 28.5t28 67.5v193q0 39 -28 67.5
t-68 28.5zM387 -68q-14 0 -23.5 -9.5t-9.5 -22.5t9.5 -22.5t23.5 -9.5t23.5 9.5t9.5 22.5t-9.5 22.5t-23.5 9.5z" />
    <glyph glyph-name="uniE606" unicode="&#xe606;" 
d="M895 748h-767q-7 0 -11.5 -5t-4.5 -11.5t4.5 -11t11.5 -4.5h767q7 0 11.5 4.5t4.5 11t-4.5 11.5t-11.5 5zM827 212l-315 315l-313 -312q-8 -5 -8 -14q0 -7 4.5 -11.5t11.5 -4.5q6 0 10 4l1 -1l278 278v-597q0 -7 4.5 -11.5t11 -4.5t11.5 4.5t5 11.5v597l278 -278v1
q5 -6 12 -6q6 0 11 5t5 11q0 9 -7 13z" />
    <glyph glyph-name="uniE607" unicode="&#xe607;" 
d="M896 -30q-12 122 -92.5 214t-197.5 122q61 27 99.5 84t38.5 127q0 96 -68 163.5t-163.5 67.5t-163 -67.5t-67.5 -163.5q0 -70 38 -127t100 -84q-118 -30 -198 -122t-92 -214q-2 -3 -2 -7v-31q0 -6 4.5 -10.5t10.5 -4.5t10.5 4.5t4.5 10.5v15h1q4 93 52 171t128 123
t173.5 45t173.5 -45t128 -123t52 -171h1v-15q0 -6 4.5 -10.5t10.5 -4.5t10.5 4.5t4.5 10.5v31q0 4 -1 7zM312 517q0 83 59 141.5t141.5 58.5t141.5 -58.5t59 -141.5t-59 -141.5t-141.5 -58.5t-141.5 58.5t-59 141.5z" />
    <glyph glyph-name="uniE608" unicode="&#xe608;" 
d="M958 50l-93 124q54 49 62 106v2v1v0q0 7 -4.5 11.5t-11.5 4.5t-11.5 -4.5t-4.5 -11.5v0q-8 -53 -63 -97t-144 -69.5t-192.5 -25.5t-192.5 25.5t-144 69.5t-63 97q0 6 -4.5 10t-11 4t-11 -4t-5.5 -10v-1v-1q0 -2 1 -5q13 -73 97 -130l-90 -97q-3 -5 -1.5 -11.5t7.5 -10
t12.5 -1.5t9.5 7l90 96q48 -27 108 -44l-45 -168q-2 -7 1.5 -12.5t10 -7.5t12 1.5t7.5 9.5l45 169q72 -17 151 -18v-176q0 -7 4.5 -11.5t11 -4.5t11.5 4.5t5 11.5v176q86 2 165 22l54 -170q2 -7 8.5 -10.5t14 -1.5t11.5 8t2 12l-54 172q75 25 128 63l89 -120q8 -13 22 -5
q6 3 7.5 9t-1.5 12z" />
    <glyph glyph-name="uniE609" unicode="&#xe609;" 
d="M953 572q-14 8 -22 -6l-92 -120q-53 38 -127 62l55 172q2 6 -2 12t-12 7.5t-14.5 -2t-8.5 -9.5l-54 -170q-79 20 -167 21v177q0 6 -4.5 10.5t-11.5 4.5t-11.5 -4.5t-4.5 -10.5v-177q-79 -2 -151 -19l-46 170q-2 7 -7.5 10t-12 1.5t-10 -7.5t-1.5 -12l46 -170
q-70 -21 -122 -54l-79 109q-8 14 -22 6q-5 -3 -7 -9.5t1 -12.5l81 -111q-82 -63 -82 -141q0 -65 57.5 -120t157 -87.5t217 -32.5t217 32.5t157.5 87.5t58 120q0 69 -65 127l95 125q3 6 1.5 12t-7.5 9zM897 299.5q0 -56.5 -53.5 -104.5t-146 -76t-201 -28t-200.5 28
t-145.5 76t-53.5 104.5t53.5 104.5t145.5 75.5t200.5 27.5t201 -27.5t146 -75.5t53.5 -104.5zM705 299.5q0 86.5 -61 147t-147.5 60.5t-147 -60.5t-60.5 -147t60.5 -147.5t147 -61t147.5 61t61 147.5zM496.5 123q-72.5 0 -124 52t-51.5 124.5t51.5 124t124 51.5t124.5 -51.5
t52 -124t-52 -124.5t-124.5 -52z" />
    <glyph glyph-name="uniE60A" unicode="&#xe60a;" 
d="M145 651h734q7 0 12 4.5t5 11.5t-5 12t-12 5h-734q-7 0 -12 -5t-5 -12t5 -11.5t12 -4.5zM879 -51h-734q-7 0 -12 -4.5t-5 -11.5t5 -12t12 -5h734q7 0 12 5t5 12t-5 11.5t-12 4.5zM879 317h-734q-7 0 -12 -5t-5 -12t5 -12t12 -5h734q7 0 12 5t5 12t-5 12t-12 5z" />
    <glyph glyph-name="uniE60B" unicode="&#xe60b;" 
d="M445 -66q-95 0 -181 29t-142.5 87t-56.5 133q0 59 34.5 125t99.5 131q62 62 128 98.5t117 36.5q41 0 64 -24q33 -33 20 -103q86 36 132 32t72 -44t4 -100q57 -18 92.5 -54.5t35.5 -82.5q0 -47 -32 -94t-86.5 -85t-134 -61.5t-166.5 -23.5zM449 541q-42 0 -104.5 -36.5
t-118.5 -92.5q-128 -130 -128 -223q0 -64 48 -115.5t128 -79.5t175 -28q72 0 143.5 21.5t123.5 54.5t84 72.5t32 74.5q0 23 -13 43.5t-33 33.5t-35 20.5t-26 10.5q-21 7 -27 19t0 29q18 46 3 68q-8 12 -13 17.5t-17.5 10.5t-30.5 4q-14 -1 -28 -5t-24 -8t-27.5 -12
t-28.5 -13t-21 -5q-15 0 -22 11q-9 12 -3 28q19 57 -5 81q0 1 -3 4l-5 5q-1 1 -4.5 3.5t-6 3.5t-6 2t-7.5 1zM933 339q-6 0 -10.5 4t-4.5 11q0 2 1 4q18 55 6 111t-50 98.5t-92.5 60t-110.5 5.5q-6 -1 -11 2.5t-6.5 9.5t2 11t9.5 6q63 14 125 -6t105.5 -68.5t57 -112.5
t-5.5 -125q-4 -11 -15 -11zM822 375q-2 0 -5 1q-5 2 -8 7.5t-1 10.5q8 25 2.5 50.5t-22.5 44.5t-41.5 27t-50.5 2q-6 -1 -11 2.5t-6 9.5t2 11t9 7q33 7 65.5 -3.5t54.5 -35.5t29.5 -58.5t-3.5 -65.5q-3 -10 -14 -10zM822 375z" />
    <glyph glyph-name="uniE60C" unicode="&#xe60c;" 
d="M389 -149l-61 1l-65 9l-46 16l-24 20l-8 12l-4 15q-1 2 -1 4v3q0 2 1 3v4v3l1 13q0 2 1 4l6 15q1 2 3 3q0 1 1 2l1 2l4 5q2 1 3 2l8 7q2 1 5 2l24 10l-14 13l-26 33l-12 22q-1 1 -2 3l-7 18l-27 -30l-13 -8l-16 -6l-9 -1h-3q-2 0 -5 1q-6 3 -9 8q-2 2 -3 4l-8 21l-4 33
l1 32l10 47l11 30l23 43l28 37l45 42l-1 7q-1 1 -1 3v15q0 2 1 4l8 27l8 15l2 13l9 28l3 5v13l7 37l13 40l17 36l34 49l27 30l28 25l29 18l57 22l64 11l53 1l41 -5l53 -13l38 -15l23 -13l30 -20l26 -25l20 -25l21 -36l24 -69l7 -29l6 -39l18 -34l8 -37v-6v-7v-3q0 -2 -1 -4
l-3 -15q-1 -2 -1 -3l-2 -4l48 -84l20 -49l8 -34l4 -52l-5 -32l-12 -31l-13 -14q-2 -1 -3 -2l-6 -3h-2l-2 -1q-2 -1 -4 -1h-4q-2 0 -4 1l-4 1l-5 2q0 1 -3 3q-1 0 -2.5 1t-1.5 2l-9 9l-16 24l-10 -26l-34 -51l32 -17l21 -17q1 -1 3 -2l9 -14l6 -20v-6l-1 -3v-3l-1 -3
q0 -2 -1 -4l-1 -1q-1 -3 -1 -4l-16 -21l-16 -10l-34 -14l-43 -9l-62 -2l-67 7l-40 10l-48 15l-29 1l-37 -20l-41 -14l-37 -5l-10 -1h-1zM208 -71l7 -16l10 -8l27 -12l57 -11l21 -2l59 -1l32 3l26 6l51 26l4 3q4 4 10 3l27 -2h10h2l35 -11l26 -9l76 -12h12l58 2l46 10l27 13
l11 11l3 4l1 4l1 2v4l-4 13l-6 6l-16 13l-17 9l-27 14l-2 2q-5 5 -5.5 11.5t2.5 10.5l18 19l24 37l15 41q0 1 1 2l3 5q1 3 4 6l2 1q8 6 16 1q4 -2 6 -6l31 -49l3 -2l5 4l9 17l5 19l3 18l-2 30l-9 46l-25 57l-20 40l-23 33v1q-1 1 -1 2q-2 3 -2 6t1 6l8 34l-3 17l-6 20
l-15 26q-2 2 -2 4q-1 2 -1 4l-7 50l-19 62l-26 49l-49 49l-29 19l-34 15l-36 11l-62 10l-50 -1l-58 -10l-32 -11l-37 -19l-23 -18l-36 -37l-32 -46l-23 -56l-9 -45v-16q0 -6 -4 -10l-6 -10l-4 -23v-3q0 -5 -3 -8l-8 -14l-6 -24v-10l3 -11q3 -9 -5 -15l-41 -37l-21 -23
l-24 -38l-19 -46l-9 -42v-15l1 -26l7 -27l9 3l20 18l17 27q0 3 2 6q3 5 6 7h1l2 1q6 3 13 0l1 -1q7 -3 8 -10l8 -26l25 -47l35 -35l10 -9q4 -1 6 -4q4 -6 4 -10q0 -8 -5 -12q-3 -2 -6 -3q-3 -2 -5 -2l-35 -7l-2 -2q-2 -1 -3 -1l-3 -1l-5 -3l-3 -5l-1 -2l-1 -1l-5 -11v-4v-5
v-5q0 -1 -1 -3v-2zM208 -71z" />
    <glyph glyph-name="uniE60D" unicode="&#xe60d;" 
d="M511.5 266q-35.5 0 -60.5 -25t-25 -61q0 -31 19.5 -54.5t48.5 -29.5v-88q0 -7 5 -12t12.5 -5t12.5 5t5 12v88q29 6 49 29.5t20 54.5q0 36 -25.5 61t-61 25zM511.5 129q-21.5 0 -36.5 15t-15 36t15 36.5t36.5 15.5t36.5 -15.5t15 -36.5t-15 -36t-36.5 -15zM873 369h-69v83
q0 122 -85.5 208.5t-206.5 86.5t-207 -86.5t-86 -208.5v-83h-68q-29 0 -49 -20t-20 -49v-378q0 -28 20 -48t49 -20h722q28 0 48 20t20 48v378q0 29 -20 49t-48 20zM254 452q0 108 75.5 184.5t182 76.5t182 -76.5t75.5 -184.5v-83h-515v83zM907 -78q0 -14 -10 -24t-24 -10
h-722q-15 0 -25 10t-10 24v378q0 15 10 25t25 10h722q14 0 24 -10t10 -25v-378z" />
    <glyph glyph-name="uniE60E" unicode="&#xe60e;" 
d="M512 266q-36 0 -61 -25.5t-25 -60.5q0 -31 19.5 -55t49.5 -30v-88q0 -7 5 -12t12 -5t12 5t5 12v88q30 6 49.5 30t19.5 55q0 35 -25 60.5t-61 25.5zM512 128q-21 0 -36.5 15t-15.5 36.5t15.5 36.5t36.5 15t36.5 -15t15.5 -36.5t-15.5 -36.5t-36.5 -15zM874 369h-621v83
q0 109 76 185.5t183 76.5q92 0 163 -58.5t90 -147.5v-1q0 -8 5 -13t12.5 -5t12.5 5t5 13v1q0 4 -1 8q-22 101 -102.5 167t-184.5 66q-121 0 -207 -87t-86 -209v-84h-69q-29 0 -49 -20t-20 -49v-379q0 -29 20 -49t49 -20h724q29 0 49 20t20 49v379q0 29 -20 49t-49 20z
M909 -79q0 -14 -10 -24.5t-25 -10.5h-724q-14 0 -24.5 10.5t-10.5 24.5v379q0 15 10.5 25t24.5 10h724q15 0 25 -10t10 -25v-379z" />
    <glyph glyph-name="uniE60F" unicode="&#xe60f;" 
d="M534 300l356 356q11 11 -0.5 22.5t-23.5 0.5l-355 -356l-356 356q-5 5 -11.5 5t-11.5 -5q-11 -11 0 -23l356 -356l-356 -355q-12 -11 -0.5 -22.5t23.5 -0.5l356 355l356 -355q12 -11 23.5 0.5t-0.5 22.5z" />
    <glyph glyph-name="uniE610" unicode="&#xe610;" 
d="M416 673q-5 5 -12.5 5t-12.5 -5l-140 -214h-169q-8 0 -13 -5t-5 -13v-286q0 -8 5 -13t13 -5h172l133 -203q2 -5 5 -8h1q5 -5 12 -5t12 5t5 11v3v716q0 3 -1 5q0 7 -5 12zM386 -3l-112 170q-4 5 -11 5q-1 1 -2 1h-161v250h157q9 -2 16 5q3 3 5 7l108 167v-605zM712 566h-4
q-8 0 -13 -5t-5 -13t5.5 -13t12.5 -5h1h2q90 -8 151.5 -74.5t61.5 -157.5t-61.5 -157.5t-151.5 -74.5h-2q-8 0 -13 -5.5t-5 -13t5 -12.5t13 -5v0h1h1h1q104 8 175.5 85t71.5 182.5t-71.5 183t-175.5 85.5zM607 421q-2 1 -5 1h-1v0q-8 0 -13.5 -5.5t-5.5 -13t5.5 -13
t13.5 -5.5h1q31 -6 51 -30.5t20 -56.5t-20 -56.5t-51 -31.5h-1h-1q-8 0 -13 -5t-5 -13t5 -13t13 -5h1q3 0 6 1q44 8 73 42.5t29 80t-29 80.5t-73 43zM708 566z" />
    <glyph glyph-name="uniE611" unicode="&#xe611;" 
d="M511.5 493q-6.5 0 -11 -5t-4.5 -11v-256q0 -7 4.5 -11.5t11 -4.5t11.5 4.5t5 11.5v256q0 6 -5 11t-11.5 5zM879 592q-31 -3 -64 -3q-110 0 -192 36.5t-94 90.5h-1v16q0 7 -5 11.5t-11.5 4.5t-11 -4.5t-4.5 -11.5v-16h-2q-12 -54 -93.5 -90.5t-192.5 -36.5q-32 0 -64 3
v-32h1q-1 -25 -1 -51q0 -178 49.5 -329t134 -238.5t184.5 -87.5t184.5 87.5t133.5 238.5t49 329q0 26 -1 51h1v32zM512 -115q-91 0 -168.5 83.5t-122.5 227t-45 313.5q0 24 1 48h31q105 0 188.5 33.5t115.5 86.5q32 -53 115 -86.5t188 -33.5h31q1 -24 1 -48
q0 -170 -45 -313.5t-122 -227t-168 -83.5zM511.5 173q-6.5 0 -11 -4.5t-4.5 -11.5v-32q0 -6 4.5 -11t11 -5t11.5 5t5 11v32q0 7 -5 11.5t-11.5 4.5z" />
    <glyph glyph-name="uniE612" unicode="&#xe612;" 
d="M508 460q-4 7 -10 14l10 11q10 13 -2 23t-22 -2l-10 -12q-5 3 -9 5q-11 5 -19 5q-11 1 -21 -2.5t-17 -12.5q-8 -9 -9.5 -20.5t3.5 -23.5q3 -8 12 -21l-35 -41q-3 6 -4 12q-2 13 7 28l-24 14q-14 -23 -10 -44q3 -14 15 -29l-3 -4q-11 -12 1.5 -22.5t22.5 1.5l3 4
q11 -6 21 -10q16 -4 30.5 0t23.5 15q9 10 10.5 22t-4.5 23q-4 9 -16 26l31 36q3 -5 4 -10q2 -11 -5 -22l23 -15q9 14 9.5 26t-6.5 26zM438 364q-7 -8 -19 -8q-8 0 -17 5l31 36q7 -12 9 -16q2 -10 -4 -17zM433 447q-2 3 -3 5q-3 7 -3 12.5t4 9.5q5 7 16 6q5 0 12 -4zM305 451
q-17 12 -35 24l-44 30q-13 9 -22 -4t4 -22q21 -14 42 -29l37 -25q13 -9 22 4t-4 22zM165.5 330q-2.5 -6 0 -12t8.5 -9q24 -10 47 -19l42 -18q6 -2 12 0.5t8.5 8.5t0 12.5t-8.5 8.5q-19 8 -39 16l-50 21q-6 2 -12 -0.5t-8.5 -8.5zM944 203q-7 0 -11.5 -4.5t-4.5 -11.5v-255
q0 -7 4.5 -11.5t11.5 -4.5t11.5 4.5t4.5 11.5v255q0 7 -4.5 11.5t-11.5 4.5zM322 235q-24 2 -56.5 11.5t-56.5 19t-50 21t-29 12.5q-14 5 -14.5 8.5t9.5 17.5q3 4 5 6q11 14 36.5 38t27.5 26l-30 23q-18 -15 -57 -58t-42 -57q-2 -8 32.5 -27t66.5 -32q103 -39 126 -41
q15 -1 27 -2.5t27 -2.5q27 23 61 23q1 0 3 1q4 0 -3 2q-22 7 -83 11zM864 235q-88 1 -127 0q-13 -1 -19 7q7 -7 19 -7q10 12 18.5 23t12 15t11.5 10.5t21 15.5q14 9 20.5 14t14.5 15.5t7 19t-10.5 21.5t-31.5 26q-38 24 -145 81t-142 79q-46 28 -70 79t-26 80q0 20 -6 26.5
t-26 5.5q-8 0 -31.5 -23t-60 -55.5t-67.5 -49.5q-16 -8 -45 -23q-26 -14 -37.5 -20.5t-26.5 -16t-19 -15t-8 -14.5t-1 -17.5t9 -20.5q7 -13 14 -22.5t18 -20t16.5 -15.5t23 -19t24.5 -19q10 -9 30.5 -25.5t31.5 -25.5t29 -21.5t37 -23.5q23 -14 50 -34t38.5 -30t15.5 -14
q-9 1 -18 1q-1 -1 -3 -1q-27 -2 -51 -18q-94 -59 0 -223q43 -76 87.5 -102.5t103.5 -25.5q39 1 110.5 14t113.5 18q88 20 95 64v287zM290 363q-61 37 -118.5 89.5t-41.5 70.5q12 12 89.5 56t98.5 62q9 7 43 42q18 18 23 5q1 -2 1 -6q8 -33 35 -74t45 -56q28 -22 46 -33.5
t59 -32.5q129 -68 167 -91q60 -38 61 -48q0 -4 -5 -7q-18 -11 -46 -32.5t-40 -37.5l2 -10q5 -12 9 -18q-6 7 -9 18l-3 8q0 1 1 2q-2 13 -2 34v27q-1 10 -4 22.5t-10 30t-17.5 28.5t-27 17.5t-37.5 -2.5q-51 -20 -77 -81t-19 -111q2 -13 6 -26t8.5 -23.5t5.5 -11.5v-1l2 -4
l-2 1q-3 -1 -32 20q-1 0 -2.5 1.5t-3.5 2.5q30 -21 38 -24q1 0 0 4q-16 15 -109 89.5t-134 99.5zM494 194l-2 2zM490 197q-32 21 -64 24q26 1 64 -24zM832 -52q-1 -2 -4 -6t-19.5 -13t-39.5 -13q-215 -40 -256 -32q-33 6 -71.5 34t-56.5 62q-1 3 -5 9q-14 28 -22 45.5
t-18 46.5t-6.5 52t20.5 38q12 12 27.5 15.5t28.5 2t31.5 -9t27.5 -12.5t26 -16t18 -11q23 -14 41.5 -14.5t22.5 14.5q1 5 -7 32.5t-15.5 58t-3.5 68.5t26 64q18 21 34 27.5t26.5 1t18.5 -17.5t12 -23.5t5 -19.5q0 -4 1 -28t2.5 -43t8.5 -37t20 -20h127v-255z" />
    <glyph glyph-name="uniE613" unicode="&#xe613;" 
d="M896 75h-64v-192h-639v192h-64q-27 0 -45.5 19t-18.5 45v512q0 26 18.5 45t45.5 19h767q26 0 45 -19t19 -45v-512q0 -26 -19 -45t-45 -19zM225 299v-32v-32v-64v-256h575v256v64v32v32h-575zM832 331v-64q13 0 22.5 9.5t9.5 22.5v32q0 13 -9.5 22.5t-22.5 9.5h-639
q-14 0 -23 -9.5t-9 -22.5v-32q0 -13 9 -22.5t23 -9.5v64h639zM928 651q0 13 -9.5 22.5t-22.5 9.5h-767q-14 0 -23 -9.5t-9 -22.5v-512q0 -13 9 -22.5t23 -9.5h64v128q-27 0 -45.5 18.5t-18.5 45.5v32q0 26 18.5 45t45.5 19h639q26 0 45 -19t19 -45v-32q0 -27 -19 -45.5
t-45 -18.5v-128h64q13 0 22.5 9.5t9.5 22.5v512zM800 459h-575q-27 0 -45.5 18.5t-18.5 45.5v32q0 26 18.5 45t45.5 19h575q27 0 45.5 -19t18.5 -45v-32q0 -27 -19 -45.5t-45 -18.5zM832 555q0 13 -9.5 22.5t-22.5 9.5h-575q-14 0 -23 -9.5t-9 -22.5v-32q0 -13 9 -22.5
t23 -9.5h575q13 0 22.5 9.5t9.5 22.5v32zM544 139h-256v32h256v-32zM736 43h-448v32h448v-32z" />
    <glyph glyph-name="uniE614" unicode="&#xe614;" 
d="M878 513q-13 -8 -31.5 -21.5t-27 -19t-19.5 -9.5t-22 -4q-13 1 -32.5 9t-41.5 19.5t-27 13.5q-28 12 -56 14t-53 -10q-24 -18 5 -53q4 -5 29.5 -27t32.5 -30q6 -7 6 -17t-10 -11q-10 -3 -20 -3t-17 1.5t-17 4.5l-14 3l-24 9q-24 8 -41 7q-16 -1 -22 -9.5t-4 -16.5l2 -8
q1 -4 3.5 -10t12 -23t21 -30.5t31.5 -27.5t43 -20q33 -8 132 31t190.5 92.5t108.5 83.5q17 27 -4.5 51.5t-58.5 27.5t-75 -17zM939 433q-79 -58 -237 -123q-79 -33 -106 -25q-21 6 -41 19t-26 27q-3 7 -1.5 13t9.5 3q34 -15 54 -17q9 -1 19 -1h15l6 1q15 2 24.5 6t12 6.5
t8.5 9.5q9 12 0 45q-3 10 -11 20.5t-15 15.5l-6 6l-30 21q-25 22 -3 26q9 2 20 -2t19 -9t21 -13.5t17 -11.5q12 -7 37 -17t39 -12q52 -7 119 48q30 25 68 22q26 -1 25 -17q-2 -17 -37 -41zM844 266q-9 0 -15 -6.5t-6 -15.5q-16 -119 -109 -200.5t-215 -81.5q-90 0 -165.5 47
t-117.5 123q67 15 123 34.5t82.5 33.5t33.5 23q8 7 0 19q-9 14 -42 -2q-77 -39 -215 -69q-24 65 -24 116q0 88 43.5 163.5t119 119.5t162.5 44q54 0 108 -19.5t95 -52.5q1 -1 3 -2.5t7 -3.5t10 -2q17 0 17 18q0 8 -5 14v1q-1 1 -2 1.5t-2 1.5q-101 83 -231 83
q-99 0 -183 -49t-133 -133.5t-49 -183.5q0 -64 22 -124q-7 -1 -21.5 -4.5t-21.5 -3.5q-20 -3 -36.5 -2t-27 5.5t-6 20.5t26 43.5t26.5 42t-5 22.5q-7 3 -12.5 2t-9.5 -4l-4 -3q-50 -60 -60 -102v-3q-2 -10 -3 -16t2 -17t11.5 -17t27.5 -10t48 -2q40 3 81 9
q46 -92 133.5 -147.5t193.5 -55.5q136 0 239.5 88.5t123.5 220.5q2 9 2 14q0 9 -6.5 15.5t-15.5 6.5h2zM842 266z" />
    <glyph glyph-name="uniE615" unicode="&#xe615;" 
d="M512 748q-91 0 -174 -35.5t-143 -95.5t-95.5 -143t-35.5 -174t35.5 -174t95.5 -142.5t143 -95t174 -35.5t174 35.5t143 95t95.5 142.5t35.5 174t-35.5 174t-95.5 143t-143 95.5t-174 35.5zM512 -115q-113 0 -209 55.5t-151.5 151t-55.5 208.5q0 80 29 152.5t81 128.5
l590 -584q-57 -53 -130 -82.5t-154 -29.5zM818 20l-589 583q0 1 -1 1q57 53 130 82.5t154 29.5q113 0 208.5 -55.5t151 -151.5t55.5 -209q0 -79 -28.5 -151.5t-80.5 -128.5z" />
    <glyph glyph-name="uniE616" unicode="&#xe616;" 
d="M512 748q-91 0 -174 -35t-143 -95t-95.5 -143t-35.5 -174t35.5 -174t95.5 -143t143 -95.5t174 -35.5t174 35.5t143 95.5t95.5 143t35.5 174t-35.5 174t-95.5 143t-143 95t-174 35zM512 -115q-113 0 -209 55.5t-151.5 151.5t-55.5 209t55.5 208.5t151.5 151t209 55.5
t208.5 -55.5t151 -151t55.5 -208.5t-55.5 -209t-151 -151.5t-208.5 -55.5z" />
    <glyph glyph-name="uniE617" unicode="&#xe617;" 
d="M829.5 616.5q-64.5 64.5 -148.5 98t-168.5 33.5t-168.5 -33.5t-149 -97.5q-86 -87 -116.5 -202.5t0 -231t116.5 -201.5q65 -64 149 -98t168.5 -34t168.5 34t148.5 98.5t98 148.5t33.5 168.5t-33.5 168.5t-98 148.5zM795 452l-339 -340q-11 -11 -23 0l-203 204
q-12 11 -0.5 22.5t22.5 -0.5l193 -192l328 328q11 11 22.5 0t-0.5 -22z" />
    <glyph glyph-name="uniE618" unicode="&#xe618;" 
d="M384 347q0 13 -9.5 22.5t-22.5 9.5t-22.5 -9.5t-9.5 -22.5t9.5 -22.5t22.5 -9.5t22.5 9.5t9.5 22.5zM672 379q-13 0 -22.5 -9.5t-9.5 -22.5t9.5 -22.5t22.5 -9.5t22.5 9.5t9.5 22.5t-9.5 22.5t-22.5 9.5zM672 187q0 6 -4.5 10.5t-11 4.5t-11 -4.5t-5.5 -10.5
q0 -53 -37.5 -90.5t-90.5 -37.5t-90.5 37.5t-37.5 90.5q-2 14 -16 14t-16 -14v-1v-1v-1q1 -65 48 -111t112 -46q66 0 113 46.5t47 112.5v0v1zM895 346q-8 97 -60.5 178t-138 128t-184.5 47t-184.5 -47t-138 -128t-60.5 -178q-28 -6 -46.5 -28t-18.5 -51v-64q0 -29 18 -51
t46 -27v-2q0 -80 56.5 -136t135.5 -56h35q5 -14 17.5 -23t27.5 -9q20 0 34 14t14 34t-14 34t-34 14q-15 0 -27.5 -9t-17.5 -23h-35q-68 2 -111 46t-49 116q28 5 46 27t18 51v64q0 28 -17.5 50t-45.5 28q12 136 112.5 229t238.5 93t238.5 -93t112.5 -229q-27 -6 -45 -28
t-18 -50v-64q0 -33 23.5 -56.5t56.5 -23.5t56.5 23.5t23.5 56.5v64q0 29 -18.5 51t-46.5 28zM400.5 -37q6.5 0 11 -4.5t4.5 -11.5t-4.5 -11.5t-11 -4.5t-11.5 4.5t-5 11.5t5 11.5t11.5 4.5zM192 267v-64q0 -20 -14 -34t-34 -14t-34 14t-14 34v64q0 20 14 34t34 14t34 -14
t14 -34zM928 203q0 -20 -14 -34t-34 -14t-34 14t-14 34v64q0 20 14 34t34 14t34 -14t14 -34v-64z" />
    <glyph glyph-name="uniE619" unicode="&#xe619;" 
d="M700 98q-6 0 -10.5 -5t-4.5 -11v-46q0 -13 -9.5 -22.5t-22.5 -9.5h-527q-13 0 -22 9.5t-9 22.5v527q0 13 9 22t22 9h527q13 0 22.5 -9t9.5 -22v-47q0 -6 4.5 -10.5t10.5 -4.5t11 4.5t5 10.5v47q0 26 -18.5 44t-44.5 18h-527q-26 0 -44 -18t-18 -44v-527q0 -26 18 -44.5
t44 -18.5h527q26 0 44.5 18.5t18.5 44.5v46q0 6 -5 11t-11 5zM784 475q-5 4 -11 4t-10.5 -4.5t-4.5 -11.5q0 -8 6 -12l136 -136h-541q-7 0 -11.5 -4.5t-4.5 -11t4.5 -11t11.5 -4.5h541l-134 -134l-4 -4v0q-2 -4 -2 -9q0 -6 4.5 -10.5t10.5 -4.5q5 0 9 2l176 175z" />
    <glyph glyph-name="uniE61A" unicode="&#xe61a;" 
d="M870 352l-302 301q-23 24 -56.5 24t-56.5 -24l-302 -301q-16 -17 -22.5 -38t1.5 -41.5t33 -30.5h53v-240q0 -33 23.5 -56.5t56.5 -23.5h427q33 0 56.5 23.5t23.5 56.5v240h53q25 9 33.5 29.5t1.5 42t-23 38.5zM618 -52h-213v160q0 22 15.5 38t37.5 16h107q22 0 37.5 -16
t15.5 -38v-160zM858 268h-53q-11 0 -19 -7.5t-8 -18.5v-240q0 -22 -15.5 -38t-37.5 -16h-80v160q0 33 -23.5 56.5t-56.5 23.5h-107q-33 0 -56.5 -23.5t-23.5 -56.5v-160h-80q-22 0 -37.5 16t-15.5 38v240q0 11 -8 18.5t-19 7.5h-53q-28 29 7 65l302 301q16 16 38 16t37 -16
l302 -301q36 -36 7 -65z" />
    <glyph glyph-name="uniE61B" unicode="&#xe61b;" 
d="M829 617q-86 86 -201.5 116.5t-231 0t-201.5 -116.5t-116.5 -201.5t0 -231t116.5 -202t201.5 -117t231 0t201.5 117t116.5 202t0 231t-116.5 201.5zM704 130q12 -11 0.5 -22.5t-22.5 -0.5l-170 170l-169 -170q-11 -11 -22.5 0.5t-0.5 22.5l170 170l-170 169
q-11 12 0.5 23t22.5 0l169 -170l170 170q11 11 22.5 0t-0.5 -23l-169 -169z" />
    <glyph glyph-name="uniE61C" unicode="&#xe61c;" 
d="M738 748l-449 -448l449 -448v64l-385 384l385 384v64z" />
    <glyph glyph-name="uniE61D" unicode="&#xe61d;" 
d="M512 -96q13 0 22 9.5t9 22.5t-9 22.5t-22 9.5t-22 -9.5t-9 -22.5t9 -22.5t22 -9.5zM730 737h-436q-26 0 -44 -19t-18 -45v-769q0 -26 18 -45t44 -19h436q26 0 44 19t18 45v769q0 26 -18 45t-44 19zM761 -96q0 -13 -9 -22.5t-22 -9.5h-436q-13 0 -22 9.5t-9 22.5v96h498
v-96zM761 32h-498v641q0 13 9 22.5t22 9.5h436q13 0 22 -9.5t9 -22.5v-641z" />
    <glyph glyph-name="uniE61E" unicode="&#xe61e;" 
d="M352 333q-13 0 -22.5 -9.5t-9.5 -22.5t9.5 -22.5t22.5 -9.5t22.5 9.5t9.5 22.5t-9.5 22.5t-22.5 9.5zM672 333q-13 0 -22.5 -9.5t-9.5 -22.5t9.5 -22.5t22.5 -9.5t22.5 9.5t9.5 22.5t-9.5 22.5t-22.5 9.5zM885 395q-24 96 -91.5 168t-161.5 103q8 12 8 19
q0 27 -37.5 45.5t-90.5 18.5t-90.5 -18.5t-37.5 -45.5q0 -8 12 -17q-95 -30 -163.5 -103t-93.5 -170q-33 -7 -54 -33.5t-21 -60.5t21 -60.5t54 -33.5q28 -110 112 -188t197 -97v-5q0 -27 18.5 -45.5t45 -18.5t45.5 18.5t19 45.5v5q113 19 197 97t112 188q33 7 54 33.5
t21 60.5t-21 60.5t-54 33.5zM512 724q38 0 67 -12.5t29 -26.5t-39 -46q-35 -28 -36 -14q-1 12 -30.5 23.5t-58 20.5t-28.5 16q0 14 29 26.5t67 12.5zM544 -83q0 -14 -9.5 -23t-22.5 -9t-22.5 9t-9.5 23v64q0 13 9.5 22.5t22.5 9.5t22.5 -9.5t9.5 -22.5v-64zM864 237h-5
q-20 -108 -98 -185.5t-185 -97.5v27q0 26 -18.5 45t-45.5 19t-45.5 -19t-18.5 -45v-27q-108 20 -185.5 97.5t-97.5 185.5h-5q-27 0 -45.5 18.5t-18.5 45.5t18.5 45.5t45.5 18.5h5q20 104 93.5 180.5t175.5 99.5q3 -2 8 -4q15 -8 23 -12.5t20.5 -12t18.5 -13.5t11 -14t4 -16
t-7 -16l9 5q49 35 89 77q96 -27 163 -101.5t86 -172.5h5q27 0 45.5 -18.5t18.5 -45.5t-18.5 -45.5t-45.5 -18.5z" />
    <glyph glyph-name="uniE61F" unicode="&#xe61f;" 
d="M770 749q-57 0 -110.5 -28.5t-64.5 -67.5h-99v48q0 20 -14 34t-34 14t-34 -14t-14 -34v-48h-146q-6 0 -11 -5t-5 -11.5t5 -11t11 -4.5h146v-64q-27 0 -46 -19t-19 -45q0 -28 20 -47q-94 -29 -153.5 -109t-59.5 -181q0 -126 89.5 -215t216.5 -89t216.5 89t89.5 215
q0 101 -59.5 181t-153.5 109q20 19 20 47q0 26 -19 45t-46 19v64h99q11 -40 64.5 -68t110.5 -28t85 31t28 80.5t-28 81t-85 31.5zM432 701q0 6 4.5 11t11.5 5t11.5 -5t4.5 -11v-48h-32v48zM432 621h32v-64h-32v64zM722 156.5q0 -112.5 -80.5 -192.5t-194 -80t-193.5 80
t-80 192.5t80 192t193.5 79.5t194 -79.5t80.5 -192zM528 492.5q0 -13.5 -9 -23t-23 -9.5h-96q-14 0 -23.5 9.5t-9.5 23t9.5 23t23.5 9.5h96q14 0 23 -9.5t9 -23zM770 557q-50 0 -97.5 24t-47.5 55.5t47.5 56t97.5 24.5q81 0 81 -80t-81 -80z" />
    <glyph glyph-name="uniE620" unicode="&#xe620;" 
d="M954 672q-27 32 -182 -60q-108 84 -244 84q-108 0 -199.5 -52.5t-144.5 -144t-53 -198.5q0 -97 45 -182q-65 -72 -93.5 -122t-14.5 -66.5t67.5 2.5t133.5 68q111 -95 259 -95q107 0 198.5 52.5t144.5 144t53 198.5q0 111 -57 205q114 134 87 166zM106 -38q-19 23 107 155
q-46 75 -49 173v1v4v6q0 99 48.5 182.5t132.5 132t183 48.5q71 0 134 -22t105 -66q131 85 149 64t-88.5 -135t-274 -254.5t-298.5 -225t-149 -63.5zM891 301q0 -98 -48.5 -181.5t-132.5 -132t-182 -48.5q-129 0 -229 81q129 83 276 205q160 135 269 255q47 -83 47 -179z
M279.5 334q-20.5 0 -35 -14.5t-14.5 -35t14.5 -35t35 -14.5t35 14.5t14.5 35t-14.5 35t-35 14.5zM280 268q-7 0 -12 5t-5 11.5t5 11.5t12 5t11.5 -5t4.5 -11.5t-4.5 -11.5t-11.5 -5zM594 531.5q0 27.5 -19.5 47t-47 19.5t-47 -19.5t-19.5 -47t19.5 -46.5t47 -19t47 19
t19.5 46.5zM527.5 499q-13.5 0 -23.5 9.5t-10 23t10 23.5t23.5 10t23.5 -10t10 -23.5t-10 -23t-23.5 -9.5zM610.5 136q-20.5 0 -35 -14.5t-14.5 -35t14.5 -35t35 -14.5t35 14.5t14.5 35t-14.5 35t-35 14.5zM610 70q-7 0 -11.5 5t-4.5 12t4.5 11.5t11.5 4.5t12 -4.5t5 -11.5
t-5 -12t-12 -5z" />
    <glyph glyph-name="uniE621" unicode="&#xe621;" 
d="M207 588h608q6 0 11 4.5t5 11t-5 11.5t-11 5h-112v111q0 7 -5 11.5t-11.5 4.5t-11 -4.5t-4.5 -11.5v-111h-464q-6 0 -11 -5t-5 -11.5t5 -11t11 -4.5zM847 556h-672q-6 0 -11 -5t-5 -11.5t5 -11t11 -4.5h672q6 0 11 4.5t5 11t-5 11.5t-11 5zM767 492h-512q-26 0 -45 -19
t-19 -45l64 -512q0 -26 19 -44.5t45 -18.5h384q26 0 45 18.5t19 44.5l64 512q0 26 -19 45t-45 19zM735 -84q0 -13 -9.5 -22.5t-22.5 -9.5h-384q-13 0 -22.5 9.5t-9.5 22.5l-64 512q0 13 9.5 22.5t22.5 9.5h512q13 0 22.5 -9.5t9.5 -22.5z" />
    <glyph glyph-name="uniE622" unicode="&#xe622;" 
d="M830 445l-1 -1q-3 12 -15 12q-7 0 -11.5 -4.5t-4.5 -11.5q0 -6 4 -11q57 -88 57 -193q0 -96 -46.5 -177t-126.5 -128.5t-174.5 -47.5t-174.5 47.5t-126.5 128.5t-46.5 177q0 100 51 185q3 4 3 9q0 7 -4.5 11.5t-11.5 4.5q-12 0 -15 -12h-1q-54 -91 -54 -198
q0 -105 51 -193.5t138 -140t190.5 -51.5t190.5 51.5t138 140t51 193.5q0 114 -61 209zM632 460h3h50q7 0 11.5 4.5t4.5 11.5t-4.5 11.5t-11.5 4.5h-47q-13 0 -22 9t-10 22l32 161v4l1 5q3 10 11.5 16.5t19.5 6.5q13 0 22 -9t9 -23v-208v-352q0 -7 5 -11.5t11.5 -4.5t11 4.5
t4.5 11.5v561v1q-1 26 -19.5 44t-43.5 18q-21 0 -37 -11.5t-23 -30.5q-1 -2 -1 -5l-1 -1q0 -3 -1 -7l-32 -165v-4q0 -25 16.5 -43.5t40.5 -20.5zM385 461v-337q0 -7 4.5 -11.5t11 -4.5t11.5 4.5t5 11.5v337q40 6 67 37.5t27 73.5v160q0 7 -4.5 11.5t-11 4.5t-11 -4.5
t-4.5 -11.5v-160q0 -33 -23 -56.5t-56 -23.5t-56 23.5t-23 56.5v160q0 7 -5 11.5t-11.5 4.5t-11 -4.5t-4.5 -11.5v-160q0 -42 27 -73.5t68 -37.5zM400.5 524q6.5 0 11.5 4.5t5 11.5v192q0 7 -5 11.5t-11.5 4.5t-11 -4.5t-4.5 -11.5v-192q0 -7 4.5 -11.5t11 -4.5z" />
    <glyph glyph-name="uniE623" unicode="&#xe623;" 
d="M720 556q-42 5 -111 -12.5t-81 -19.5q0 80 56 136t136 56q14 2 14 16t-14 16h-2v0h-1q-62 -1 -114 -33t-80 -84q-8 23 -47 46.5t-94 36.5q-65 15 -115 7.5t-56 -33.5t35.5 -55t106.5 -44q50 -11 91.5 -9t62.5 15q-11 -34 -12 -70q-13 2 -37 13t-53 17.5t-67 4.5
q-227 -16 -227 -277q0 -75 34.5 -153t89 -139.5t128.5 -100.5t148 -39t138.5 25t111.5 68t81 99t51.5 117.5t18.5 122.5t-9 107t-27 75t-43 48.5t-52.5 28.5t-60.5 14zM492 622.5q-3 -13.5 -42 -16t-91 9.5q-50 11 -85 31t-32 33.5t42.5 16t91.5 -8.5q50 -12 84.5 -32
t31.5 -33.5zM511 -117q-67 -3 -135.5 33.5t-119.5 94t-82.5 131t-30.5 141.5q2 121 52.5 179t151.5 66q33 3 89 -17t75 -20q24 0 92.5 17t84.5 16q68 -8 108.5 -30.5t62 -73.5t21.5 -137q0 -70 -26.5 -140t-72.5 -127t-117 -93.5t-153 -39.5z" />
    <glyph glyph-name="uniE624" unicode="&#xe624;" 
d="M929 -116h-833q-6 0 -11 -5t-5 -11.5t5 -11t11 -4.5h833q6 0 11 4.5t5 11t-5 11.5t-11 5zM881 140h-256v544q0 26 -19 45t-46 19h-96q-26 0 -45 -19t-19 -45v-544h-256q-26 0 -45 -19t-19 -45v-96q0 -27 19 -45.5t45 -18.5h737q26 0 45 18.5t19 45.5v96q0 26 -19 45
t-45 19zM432 684q0 13 9.5 22.5t22.5 9.5h96q14 0 23 -9.5t9 -22.5v-64h-160v64zM432 588h160v-64h-160v64zM913 -20q0 -14 -9.5 -23t-22.5 -9h-737q-13 0 -22.5 9t-9.5 23v96q0 13 9.5 22.5t22.5 9.5h288v384h160v-384h289q13 0 22.5 -9.5t9.5 -22.5v-96z" />
    <glyph glyph-name="uniE625" unicode="&#xe625;" 
d="M112 634h224q6 0 11 4.5t5 11.5t-5 11.5t-11 4.5h-224q-7 0 -11.5 -4.5t-4.5 -11.5t4.5 -11.5t11.5 -4.5zM512 474q-93 0 -158.5 -65.5t-65.5 -158.5t65.5 -158.5t158.5 -65.5t158.5 65.5t65.5 158.5t-65.5 158.5t-158.5 65.5zM511.5 58q-79.5 0 -135.5 56t-56 135.5
t56 136t135.5 56.5t136 -56.5t56.5 -136t-56.5 -135.5t-136 -56zM896 570h-768q-27 0 -45.5 -19t-18.5 -45v-512q0 -27 18.5 -45.5t45.5 -18.5h768q26 0 45 18.5t19 45.5v512q0 26 -19 45t-45 19zM928 -6q0 -13 -9.5 -22.5t-22.5 -9.5h-768q-14 0 -23 9.5t-9 22.5v512
q0 13 9 22.5t23 9.5h768q13 0 22.5 -9.5t9.5 -22.5v-512z" />
    <glyph glyph-name="uniE626" unicode="&#xe626;" 
d="M513 93q50 0 85.5 35.5t35.5 85.5t-35.5 85t-85.5 35t-85 -35t-35 -85t35 -85.5t85 -35.5zM513.5 300q35.5 0 61 -25.5t25.5 -61t-25.5 -61t-61 -25.5t-61 25.5t-25.5 61t25.5 61t61 25.5zM238 645q-7 0 -12.5 -5.5t-5.5 -12.5t5.5 -12t12.5 -5t12 5t5 12t-5 12.5
t-12 5.5zM806 748h-586q-28 0 -48 -20t-20 -49v-758q0 -29 20 -49t48 -20h586q29 0 49 20t20 49v758q0 29 -20 49t-49 20zM738 -114h-35v52q0 7 5 12t12 5t12.5 -5t5.5 -12v-52zM841 -79q0 -15 -10 -25t-25 -10h-34v69q0 14 -10 24.5t-24 10.5h-35q-14 0 -24 -10.5
t-10 -24.5v-69h-449q-14 0 -24 10t-10 25v586h655v-586zM841 541h-655v138q0 14 10 24.5t24 10.5h586q15 0 25 -10.5t10 -24.5v-138zM513 24q65 0 115.5 39t67.5 99h24q22 0 37 15t15 36.5t-15 36.5t-37 15h-24q-17 61 -67.5 99.5t-115.5 38.5q-78 0 -133.5 -55.5
t-55.5 -134t55.5 -134t133.5 -55.5zM706 231h14q7 0 12.5 -5t5.5 -12t-5.5 -12.5t-12.5 -5.5h-14v35zM513.5 369q64.5 0 110 -45.5t45.5 -110t-45.5 -109.5t-110 -45t-110 45t-45.5 109.5t45.5 110t110 45.5zM513 679h-103q-21 0 -36.5 -15t-15.5 -36.5t15.5 -36.5t36.5 -15
h103q22 0 37 15t15 36.5t-15 36.5t-37 15zM513 610h-103q-7 0 -12 5t-5 12t5 12.5t12 5.5h103q8 0 13 -5.5t5 -12.5t-5 -12t-13 -5zM306.5 645q-7.5 0 -12.5 -5.5t-5 -12.5t5 -12t12.5 -5t12.5 5t5 12t-5 12.5t-12.5 5.5z" />
    <glyph glyph-name="uniE627" unicode="&#xe627;" 
d="M501 445q17 0 28 11t11 28t-11 27.5t-28 10.5q-18 0 -32 -10.5t-14 -27.5t14 -28t32 -11zM286 522q-18 0 -32 -10.5t-14 -27.5t14 -28t32 -11q17 0 27.5 11t10.5 28t-10.5 27.5t-27.5 10.5zM961 199q0 91 -73.5 159.5t-177.5 76.5q0 3 -1 5q-20 97 -113 162t-210 65
q-87 0 -161 -37t-117.5 -100.5t-43.5 -138.5q0 -124 121 -212l-28 -83q-3 -9 5 -15q4 -3 9 -3q3 0 6 1l103 52l13 -3q59 -12 93 -12q14 0 30 1q6 1 9 6q29 -71 100 -116t161 -45q32 0 90 15l79 -44q4 -1 7 -1q5 0 9 3q7 6 5 15l-21 67q106 83 106 182zM413 145
q-13 -1 -27 -1q-31 0 -88 12l-17 3q-5 1 -9 -1l-77 -39l20 61q3 10 -6 16q-117 81 -117 195q0 103 86 175.5t208 72.5q107 0 191.5 -58t103.5 -145q-112 -1 -191.5 -70.5t-79.5 -166.5q0 -26 8 -54h-5zM831 34q-8 -6 -5 -16l13 -44l-54 30q-4 2 -7 2q-2 0 -4 -1
q-59 -15 -88 -15q-103 0 -175.5 61.5t-72.5 148t72.5 147.5t175.5 61q100 0 173.5 -62t73.5 -147q0 -89 -102 -165zM601 299q-12 0 -21.5 -9.5t-9.5 -21t9.5 -21t21.5 -9.5q17 0 27.5 9t10.5 21.5t-10.5 21.5t-27.5 9zM770 299q-11 0 -21 -9.5t-10 -21t9.5 -21t21.5 -9.5
q17 0 27.5 9t10.5 21.5t-10.5 21.5t-27.5 9zM770 299z" />
    <glyph glyph-name="uniE628" unicode="&#xe628;" 
d="M445 -68q-95 0 -181 29t-142.5 87t-56.5 133q0 59 34.5 125.5t99.5 131.5q62 62 128 98.5t117 36.5q41 0 65 -24q32 -33 19 -103q87 36 133 32t72 -44t3 -101q58 -18 93.5 -54.5t35.5 -82.5q0 -47 -32 -94t-86.5 -85t-134 -61.5t-167.5 -23.5zM449 540
q-42 0 -104.5 -36.5t-118.5 -92.5q-129 -130 -129 -223q0 -64 48.5 -116t128.5 -80t175 -28q72 0 144 21.5t123.5 54.5t84 73t32.5 75q0 23 -13.5 43.5t-33.5 33.5t-34.5 20.5t-26.5 10.5q-21 6 -27 18.5t1 29.5q18 45 2 68q-8 11 -13 16.5t-17.5 11t-29.5 4.5
q-14 -1 -28.5 -5t-24.5 -8t-27.5 -12t-28.5 -13t-21 -5q-14 0 -22 11q-9 12 -3 28q19 57 -5 81q0 1 -3 5l-5 4q-1 1 -4.5 3.5t-6 3.5t-6 2t-7.5 1zM934 337q-6 0 -10.5 4.5t-4.5 10.5q0 3 1 5q18 55 6 111t-50.5 98.5t-93 60t-109.5 5.5q-7 -1 -12 2.5t-6 9.5t2 11t9 7
q64 13 126 -7t105.5 -68.5t57 -112.5t-6.5 -126q-3 -11 -14 -11zM823 374h-5q-6 2 -8.5 7.5t-0.5 11.5q8 25 2.5 50.5t-23 44.5t-42 27t-49.5 2q-6 -1 -11 2.5t-6.5 9.5t2 11t9.5 7q33 7 65 -3.5t54.5 -35.5t29.5 -58.5t-3 -65.5q-3 -10 -14 -10zM823 374z" />
    <glyph glyph-name="uniE629" unicode="&#xe629;" 
d="M388 -147h-61l-65 10l-46 16l-24 20l-7 11l-5 16v3v3v4l1 4v3l1 13q0 1 1 3l6 16q1 1 2 3l1 2l2 2l4 5l2 2l9 6q2 2 4 3l24 9l-14 13l-26 33l-12 22q-1 1 -1 3l-8 18l-27 -29l-13 -9l-16 -6l-8 -1h-3t-5 1q-7 3 -9 8q-3 3 -3 5l-8 20l-4 33l1 32l10 47l10 30l23 43l28 37
l46 42l-2 6v4v15v3l9 27l8 15l1 14l9 28l4 5v13l6 37l13 39l17 36l34 50l27 29l28 25l29 18l57 22l63 11l54 1l40 -5l53 -13l38 -15l24 -13l29 -20l26 -24l20 -26l21 -36l25 -69l6 -29l6 -38l18 -35l8 -37l1 -6l-1 -6v-3q0 -2 -1 -4l-3 -15q0 -2 -1 -3l-2 -4l48 -84l20 -49
l8 -34l4 -51l-5 -33l-12 -30l-13 -15q-2 -1 -3 -2l-6 -2q0 -1 -2 -2h-2q-2 -1 -4 -1h-4q-2 0 -4 1q-4 1 -4 2l-4 2q-1 0 -4 2q-1 0 -3 2l-1 1l-9 9l-16 24l-10 -26l-34 -50l32 -17l21 -17q1 -1 3 -2l9 -14l6 -21v-6l-1 -2v-3l-1 -3q0 -2 -1 -4l-1 -2l-1 -3l-16 -21l-16 -10
l-34 -15l-43 -8l-61 -2l-67 7l-41 10l-48 15l-28 1l-37 -20l-41 -15l-37 -4l-10 -1h-1zM207 -69l8 -16l9 -8l27 -13l57 -11l21 -2h59l32 3l26 6l51 25l4 4q4 4 10 3l27 -2h9q2 0 3 -1l35 -11l26 -8l75 -12l13 -1l58 2l46 11l26 13l11 11l3 4q1 3 2 4v2v3l-4 13l-6 7l-16 12
l-17 10l-26 13q-2 1 -3 3q-4 4 -5 10.5t3 11.5l17 18l24 38l15 40q1 2 1 3l3 4q1 4 4 6l3 2q7 5 15 0q4 -2 6 -6l31 -48l3 -2l5 3l9 17l5 19l3 19l-2 29l-9 46l-24 57l-21 39l-23 33v2l-1 1q-2 3 -2 7q0 3 1 6l8 33l-3 17l-6 20l-15 26q-1 2 -2 5v3l-8 51l-19 61l-26 49
l-49 50l-29 18l-34 15l-35 11l-63 10l-49 -1l-58 -10l-32 -11l-37 -19l-23 -17l-36 -38l-32 -46l-23 -55l-9 -45v-17q0 -5 -3 -9l-7 -10l-4 -23v-4q0 -4 -2 -8l-8 -13l-7 -24l1 -10l2 -11q3 -9 -4 -15l-42 -37l-20 -23l-25 -38l-18 -45l-9 -43l-1 -14l1 -26l7 -27l9 3l20 18
l17 26l2 6q3 5 7 7l2 1q7 3 14 0q1 0 1 -1q6 -3 8 -9l8 -27l25 -47l34 -35l11 -8q3 -2 5 -5q4 -5 4 -10q0 -7 -5 -11q-2 -2 -6 -4q-3 -1 -5 -1l-34 -7l-3 -2q-1 -1 -3 -2l-3 -1l-4 -3l-4 -4l-1 -2l-1 -1l-4 -12v-4q0 -3 -1 -5v-4v-3z" />
    <glyph glyph-name="uniE62A" unicode="&#xe62a;" 
d="M446 -50h-300q-7 0 -12 -5t-5 -12t5 -12t12 -5h300q7 0 12 5t5 12t-5 12t-12 5zM146 649h733q7 0 12 5t5 12t-5 12t-12 5h-733q-7 0 -12 -5t-5 -12t5 -12t12 -5zM446 316h-300q-7 0 -12 -5t-5 -11.5t5 -11.5t12 -5h300q7 0 12 5t5 11.5t-5 11.5t-12 5zM893 156l-203 203
l-201 -202q-7 -5 -7 -13q0 -7 5 -11.5t12 -4.5t12 5l162 161v-361q1 -7 6 -12t12 -5t11.5 5t4.5 12v362l158 -158q5 -8 14 -8q7 0 12 5t5 12q0 6 -3 10z" />
    <glyph glyph-name="uniE62B" unicode="&#xe62b;" 
d="M668 416l-280 325q-3 3 -6 4q-5 3 -10 3q-8 0 -14 -5.5t-6 -13.5v-857q0 -8 6 -13.5t14 -5.5t14 5.5t6 13.5v805l245 -285q6 -6 14 -6.5t14 4.5t7 12.5t-4 13.5z" />
    <glyph glyph-name="uniE62C" unicode="&#xe62c;" 
d="M665 211q-6 5 -14 4t-13 -7l-248 -286v807q0 8 -5.5 13.5t-13 5.5t-13 -5.5t-5.5 -13.5v-857q0 -8 5.5 -13.5t13.5 -5.5q10 0 15 9l280 323q5 5 4.5 13t-6.5 13z" />
    <glyph glyph-name="uniE62D" unicode="&#xe62d;" 
d="M917 715q5 5 5 13t-5 13t-13 5h-782q-8 0 -13.5 -5t-5.5 -13q0 -9 7 -15l254 -400v-256q0 -7 5.5 -12.5t13 -5.5t13 5.5t5.5 12.5v261q0 9 -7 15l-239 376h715l-239 -377q-7 -5 -7 -14v-447q0 -8 5.5 -13t13.5 -5t13.5 5t5.5 13v440z" />
    <glyph glyph-name="uniE62E" unicode="&#xe62e;" 
d="M848 526h-140q44 38 44 96q0 53 -37.5 90.5t-91.5 37.5q-35 0 -65 -18t-47 -48q-17 30 -47 48t-65 18q-53 0 -91 -37.5t-38 -90.5q0 -58 44 -96h-140q-40 0 -68 -28.5t-28 -67.5v-97q0 -40 28 -68t68 -28v-321q0 -26 19 -45t45 -19h546q26 0 45 19t19 45v321q40 0 68 28
t28 68v97q0 39 -28 67.5t-68 28.5zM495 -116h-257q-13 0 -22.5 9.5t-9.5 22.5v321h289v-353zM495 269h-321q-26 0 -45 19t-19 45v97q0 26 19 45t45 19h321v-225zM495 526h-96q-40 0 -68.5 28t-28.5 68t28.5 68t68.5 28t68 -28t28 -68v-96zM527 622q0 40 28 68t68 28
t68.5 -28t28.5 -68t-28.5 -68t-68.5 -28h-96v96zM816 -84q0 -13 -9.5 -22.5t-22.5 -9.5h-257v353h289v-321zM912 333q0 -26 -18.5 -45t-45.5 -19h-321v225h321q27 0 45.5 -19t18.5 -45v-97z" />
    <glyph glyph-name="uniE62F" unicode="&#xe62f;" 
d="M704 300v385q0 26 -19 45t-45 19h-257q-26 0 -45 -19t-19 -45v-385h-256l32 -32v0l416 -416l417 416v0l32 32h-256zM511 -103l-370 371h210v417q0 13 9.5 22.5t22.5 9.5h257q13 0 22.5 -9.5t9.5 -22.5v-417h210z" />
    <glyph glyph-name="uniE630" unicode="&#xe630;" 
d="M512 525q-60 0 -102 -42.5t-42 -102t42 -102t102 -42.5t102.5 42.5t42.5 102t-42.5 102t-102.5 42.5zM512.5 268q-46.5 0 -79.5 33t-33 79.5t33 79.5t79.5 33t79 -33t32.5 -79.5t-32.5 -79.5t-79 -33zM512 749q-100 0 -185 -49.5t-134.5 -135.5t-49.5 -187
q0 -57 38 -132.5t92.5 -142t108.5 -124t92 -93t38 -33.5q8 6 21 18t51.5 49.5t73.5 74.5t77.5 89.5t73 100t51.5 99.5t21 94q0 101 -49.5 187t-134.5 135.5t-185 49.5zM512 -104q-7 6 -19 17t-47 45t-67 68t-70.5 82t-66.5 91.5t-47 91.5t-19 86q0 92 45 170.5t122.5 124
t169 45.5t169 -45.5t122.5 -124t45 -170.5q0 -140 -232 -380q-58 -61 -105 -101z" />
    <glyph glyph-name="uniE631" unicode="&#xe631;" 
d="M661 346q-70 15 -148 18.5t-122 -1.5l-44 -4q59 -5 108.5 -14.5t69.5 -16.5l21 -7l-189 -146q28 -6 56.5 -9.5t53.5 -4.5t49.5 -0.5t44.5 2.5t38 4t32 5t23.5 5t15 3.5t4.5 1.5q-187 17 -211 31l198 133v0zM959 403q-2 9 -12 9l-303 27l-119 284q-4 9 -13 9t-13 -9
l-118 -284l-304 -27q-9 0 -12 -9t4 -15l230 -203l-69 -300q-2 -10 5.5 -15.5t15.5 -0.5l261 160l261 -160q3 -2 7 -2q5 0 9 3q7 5 5 15l-69 300l230 203q7 6 4 15v0zM876 366l-189 -166l56 -247q2 -7 -4 -12q-3 -2 -7 -2q-3 0 -6 2l-214 130l-214 -130q-6 -4 -12 0.5
t-5 11.5l57 247l-189 166q-5 5 -3 12t10 8l249 22l97 233q3 7 10.5 7t10.5 -7l97 -233l249 -22q8 -1 10 -8t-3 -12v0zM876 366z" />
    <glyph glyph-name="uniE632" unicode="&#xe632;" 
d="M924 339q-18 -27 -121 -132.5t-197 -198.5t-94 -92q-15 14 -40.5 39t-91.5 91t-119 119.5t-101.5 105t-59.5 68.5q-36 56 -36 122q0 92 65.5 157.5t158.5 65.5q69 0 125.5 -38.5t81.5 -100.5q5 -11 9 -32t6 -37l2 -15q6 58 16 84q26 62 82.5 100.5t125.5 38.5
q93 0 158.5 -65.5t65.5 -157.5q0 -67 -36 -122zM736 652q-62 0 -112 -35.5t-70 -92.5q-3 -9 -5.5 -24.5t-3.5 -27.5l-1 -11q0 -13 -9.5 -22.5t-22.5 -9.5t-22.5 9.5t-9.5 22.5q-4 43 -11 63q-20 57 -69.5 92.5t-111.5 35.5q-80 0 -136 -56t-56 -135q0 -46 21 -87
q30 -59 355 -372l8 -8l32 -31l32 31q13 13 35.5 35t81.5 80t105.5 105.5t89 95t51.5 64.5q21 41 21 87q0 79 -56.5 135t-135.5 56z" />
    <glyph glyph-name="uniE633" unicode="&#xe633;" 
d="M512 748q-91 0 -174 -35.5t-143 -95.5t-95.5 -143t-35.5 -174.5t35.5 -174.5t95.5 -143t143 -95.5t174 -35.5t174 35.5t143 95.5t95.5 143t35.5 174.5t-35.5 174.5t-95.5 143t-143 95.5t-174 35.5zM529 28q0 -7 -5 -11.5t-11.5 -4.5t-11 4.5t-4.5 11.5v384q0 6 4.5 11
t11 5t11.5 -5t5 -11v-384zM512.5 556q-6.5 0 -11 4.5t-4.5 11t4.5 11.5t11 5t11.5 -5t5 -11.5t-5 -11t-11.5 -4.5z" />
    <glyph glyph-name="uniE634" unicode="&#xe634;" 
d="M845 402q-7 0 -11.5 -4.5t-4.5 -11.5v-405q0 -13 -9.5 -22.5t-23.5 -9.5h-582q-14 0 -23.5 9.5t-9.5 22.5v615q0 14 9.5 23.5t23.5 9.5h340q6 0 11 4.5t5 11.5t-5 11.5t-11 4.5h-340q-27 0 -46 -19t-19 -46v-615q0 -27 19 -46t46 -19h582q27 0 46 19t19 46v405
q0 7 -4.5 11.5t-11.5 4.5zM869.5 678.5q-12.5 10.5 -23.5 -1.5l-416 -496q-10 -13 2.5 -23.5t22.5 2.5l416 496q11 12 -1.5 22.5z" />
    <glyph glyph-name="uniE635" unicode="&#xe635;" 
d="M404 624q7 0 12 4.5t6 11.5v36q0 14 10.5 24.5t25.5 10.5h107q15 0 25.5 -10.5t10.5 -24.5v-36q2 -15 17.5 -15t17.5 15h1v36q0 29 -21 50t-51 21h-107q-30 0 -51 -21t-21 -50v-36h1q0 -7 5 -11.5t12 -4.5zM618.5 33q7.5 0 13 5t5.5 12v322q0 7 -5.5 12.5t-13 5.5
t-12.5 -5.5t-5 -12.5v-322q0 -7 5 -12t12.5 -5zM940 568h-857q-8 0 -13 -5t-5 -12.5t5 -12.5t13 -5h125v-608q0 -29 21 -50t50 -21h465q29 0 50 21t21 50v608h125q8 0 13 5t5 12.5t-5 12.5t-13 5zM779 -75q0 -14 -10.5 -24.5t-24.5 -10.5h-465q-14 0 -24.5 10.5t-10.5 24.5
v608h535v-608zM404.5 33q7.5 0 12.5 5t5 12v322q0 7 -5 12.5t-12.5 5.5t-13 -5.5t-5.5 -12.5v-322q0 -7 5.5 -12t13 -5z" />
    <glyph glyph-name="uniE636" unicode="&#xe636;" 
d="M305 642q-100 0 -170.5 -71t-70.5 -171q0 -59 27 -110q4 -8 12 -11t16 1t11 12.5t-1 16.5q-22 43 -22 91q0 82 58 140.5t140 58.5t140.5 -58.5t58.5 -140.5t-58.5 -140.5t-140.5 -58.5q-23 0 -44 5q-9 2 -16.5 -2.5t-9.5 -13.5t2.5 -16.5t13.5 -9.5q27 -6 54 -6
q100 0 171 71t71 171t-71 171t-171 71zM263 339q21 -15 46 -15q33 0 56.5 23.5t23.5 57t-23.5 56.5t-56.5 23t-56.5 -23t-23.5 -57q0 -16 7 -32q-30 -31 -55 -68q-46 -69 -74.5 -169t-17.5 -224q1 -9 7.5 -17.5t13.5 -8.5h2q9 0 15 10t5 20q-19 206 84 360q29 44 47 64z
M753 464q-26 -1 -52 11q-42 20 -57.5 64t4.5 86t64 58t86 -5q42 -19 57.5 -63.5t-4.5 -86.5q-5 -12 -13 -21q-8 -10 1.5 -17.5t17.5 1.5q8 11 16 27q25 51 6 104.5t-70.5 78t-104.5 5.5t-77.5 -70.5t-5.5 -105t70 -77.5q30 -14 63 -14q5 1 8.5 4.5t3 8.5t-4 8.5t-8.5 3.5z
M952 371q-109 40 -162 130q-11 19 -19 39q12 7 18 20q8 17 2 34.5t-23 26t-35 2t-26 -23.5t-1.5 -34.5t23.5 -25.5q9 -5 18 -5q9 -23 21 -44q58 -98 175 -142q11 -4 16 6v2q4 11 -7 15zM952 371z" />
    <glyph glyph-name="uniE637" unicode="&#xe637;" 
d="M896 428v192q0 26 -18.5 45t-45.5 19h-704q-26 0 -45 -19t-19 -45v-640q0 -26 19 -45t45 -19h704q27 0 45.5 19t18.5 45v192q27 0 45.5 19t18.5 45v128q0 27 -18.5 45.5t-45.5 18.5zM864 -20q0 -13 -9.5 -22.5t-22.5 -9.5h-704q-13 0 -22.5 9.5t-9.5 22.5v640
q0 13 9.5 22.5t22.5 9.5h704q13 0 22.5 -9.5t9.5 -22.5v-192h-160q-26 0 -45 -18.5t-19 -45.5v-128q0 -26 19 -45t45 -19h160v-192zM928 236q0 -13 -9.5 -22.5t-22.5 -9.5h-192q-13 0 -22.5 9.5t-9.5 22.5v128q0 13 9.5 22.5t22.5 9.5h192q13 0 22.5 -9.5t9.5 -22.5v-128z
M144.5 556q-6.5 0 -11.5 -4.5t-5 -11.5v-480q0 -6 5 -11t11.5 -5t11 5t4.5 11v480q0 7 -4.5 11.5t-11 4.5z" />
    <glyph glyph-name="uniE638" unicode="&#xe638;" 
d="M496 156h-320q-6 0 -11 -4.5t-5 -11.5t5 -11.5t11 -4.5h320q7 0 11.5 4.5t4.5 11.5t-4.5 11.5t-11.5 4.5zM496 252h-320q-6 0 -11 -4.5t-5 -11.5t5 -11.5t11 -4.5h320q7 0 11.5 4.5t4.5 11.5t-4.5 11.5t-11.5 4.5zM176 444h224q7 0 11.5 4.5t4.5 11t-4.5 11.5t-11.5 5
h-224q-6 0 -11 -5t-5 -11.5t5 -11t11 -4.5zM496 348h-320q-6 0 -11 -4.5t-5 -11.5t5 -11.5t11 -4.5h320q7 0 11.5 4.5t4.5 11.5t-4.5 11.5t-11.5 4.5zM896 604h-768q-26 0 -45 -19t-19 -45v-480q0 -27 19 -45.5t45 -18.5h768q27 0 45.5 18.5t18.5 45.5v480q0 26 -18.5 45
t-45.5 19zM928 60q0 -13 -9.5 -22.5t-22.5 -9.5h-768q-13 0 -22.5 9.5t-9.5 22.5v480q0 13 9.5 22.5t22.5 9.5h768q13 0 22.5 -9.5t9.5 -22.5v-480zM793 335q39 28 39 77q0 40 -28 68t-68 28t-68 -28t-28 -68q0 -49 39 -77q-32 -16 -51.5 -47t-19.5 -68v-96h256v96
q0 37 -19.5 68t-51.5 47zM672 411.5q0 26.5 19 45.5t45.5 19t45 -19t18.5 -45.5t-18.5 -45t-45 -18.5t-45.5 18.5t-19 45zM832 156h-192v64q0 40 28 68t68 28t68 -28t28 -68v-64z" />
    <glyph glyph-name="uniE639" unicode="&#xe639;" 
d="M144 171h-16q-13 0 -22.5 9.5t-9.5 22.5v448q0 13 9.5 22.5t22.5 9.5h640q13 0 22.5 -9.5t9.5 -22.5v-48q0 -7 4.5 -11.5t11.5 -4.5t11.5 4.5t4.5 11.5v48q0 27 -19 45.5t-45 18.5h-640q-27 0 -45.5 -18.5t-18.5 -45.5v-448q0 -39 35 -57q4 -7 13 -7h32q6 0 11 4.5
t5 11.5t-5 11.5t-11 4.5zM896 555h-640q-27 0 -45.5 -19t-18.5 -45v-448q0 -27 18.5 -45.5t45.5 -18.5h203q2 -3 4 -5l75 -75q16 -16 37.5 -16t37.5 16l75 75q2 2 4 5h204q26 0 45 18.5t19 45.5v448q0 26 -19 45t-45 19zM928 43q0 -13 -9.5 -22.5t-22.5 -9.5h-224l-32 -32h9
l-56 -56q-7 -8 -17.5 -8t-17.5 8l-57 56h11l-32 32h-224q-13 0 -22.5 9.5t-9.5 22.5v448q0 13 9.5 22.5t22.5 9.5h640q13 0 22.5 -9.5t9.5 -22.5v-448zM384 299q-13 0 -22.5 -9.5t-9.5 -22.5t9.5 -22.5t22.5 -9.5t22.5 9.5t9.5 22.5t-9.5 22.5t-22.5 9.5zM768 299
q-13 0 -22.5 -9.5t-9.5 -22.5t9.5 -22.5t22.5 -9.5t22.5 9.5t9.5 22.5t-9.5 22.5t-22.5 9.5zM576 299q-13 0 -22.5 -9.5t-9.5 -22.5t9.5 -22.5t22.5 -9.5t22.5 9.5t9.5 22.5t-9.5 22.5t-22.5 9.5z" />
    <glyph glyph-name="uniE63A" unicode="&#xe63a;" 
d="M924 339q-18 -27 -121 -132.5t-197 -198.5t-94 -92q-15 14 -40.5 39t-91.5 91t-119 119.5t-101.5 105t-59.5 68.5q-36 56 -36 122q0 92 65.5 157.5t158.5 65.5q69 0 125.5 -38.5t81.5 -100.5q5 -11 9 -32t6 -37l2 -15q6 58 16 84q26 62 82.5 100.5t125.5 38.5
q93 0 158.5 -65.5t65.5 -157.5q0 -67 -36 -122z" />
    <glyph glyph-name="uniE63B" unicode="&#xe63b;" 
d="M347.5 349q-6.5 0 -11.5 -5t-5 -12v-83h-83q-7 0 -12 -4.5t-5 -11.5t5 -12t12 -5h99q7 0 12 5t5 12v99q0 7 -5 12t-11.5 5zM895 681h-498q-27 0 -46.5 -19.5t-19.5 -46.5v-100h-33q-35 0 -75 -34.5t-65.5 -81.5t-25.5 -83v-67q0 -11 1 -21l-68 -180q-4 -7 0 -14v-1
q0 -6 5 -11t12 -5h116q0 -41 29 -70.5t70.5 -29.5t70.5 29.5t29 70.5h266q0 -41 29 -70.5t70.5 -29.5t70.5 29.5t29 70.5h33q28 0 47.5 19.5t19.5 46.5v532q0 27 -19.5 46.5t-47.5 19.5zM297.5 -50q-27.5 0 -47 19.5t-19.5 47t19.5 47t47 19.5t47 -19.5t19.5 -47t-19.5 -47
t-47 -19.5zM762.5 -50q-27.5 0 -47 19.5t-19.5 47t19.5 47t47 19.5t47 -19.5t19.5 -47t-19.5 -47t-47 -19.5zM929 83q0 -14 -10 -23.5t-24 -9.5h-38q-11 29 -36.5 47.5t-58 18.5t-58 -18.5t-35.5 -47.5h-272q-3 0 -6 1q-10 29 -35.5 47t-58 18t-58 -18.5t-35.5 -47.5h-103
l64 168q2 3 2 7h1q-3 12 -3 24v67q0 43 46.5 104.5t86.5 61.5h66v133q0 13 9.5 23t23.5 10h498q14 0 24 -10t10 -23v-532z" />
    <glyph glyph-name="uniE63C" unicode="&#xe63c;" 
d="M897 332v160q0 27 -19 45.5t-45 18.5h-64v96q0 27 -19 45.5t-45 18.5h-576q-27 0 -45.5 -18.5t-18.5 -45.5v-704q0 -26 18.5 -45t45.5 -19h704q26 0 45 19t19 45v160q26 0 45 19t19 45v96q0 27 -19 45.5t-45 18.5zM97 652q0 13 9.5 22.5t22.5 9.5h576q13 0 22.5 -9.5
t9.5 -22.5v-96h-640v96zM865 -52q0 -13 -9.5 -22.5t-22.5 -9.5h-704q-13 0 -22.5 9.5t-9.5 22.5v544v32h736q13 0 22.5 -9.5t9.5 -22.5v-160h-160q-27 0 -45.5 -18.5t-18.5 -45.5v-96q0 -26 18.5 -45t45.5 -19h160v-160zM929 172q0 -13 -9.5 -22.5t-22.5 -9.5h-192
q-13 0 -22.5 9.5t-9.5 22.5v96q0 13 9.5 22.5t22.5 9.5h192q13 0 22.5 -9.5t9.5 -22.5v-96zM849 236h-96q-7 0 -11.5 -4.5t-4.5 -11.5t4.5 -11.5t11.5 -4.5h96q6 0 11 4.5t5 11.5t-5 11.5t-11 4.5z" />
    <glyph glyph-name="uniE63D" unicode="&#xe63d;" 
d="M336 284q-7 0 -11.5 -4.5t-4.5 -11.5v-64q0 -7 4.5 -11.5t11.5 -4.5t11.5 4.5t4.5 11.5v64q0 7 -4.5 11.5t-11.5 4.5zM336 540q-7 0 -11.5 -4.5t-4.5 -11.5v-64q0 -6 4.5 -11t11.5 -5t11.5 5t4.5 11v64q0 7 -4.5 11.5t-11.5 4.5zM336 412q-7 0 -11.5 -4.5t-4.5 -11.5v-64
q0 -6 4.5 -11t11.5 -5t11.5 4.5t4.5 11.5v64q0 7 -4.5 11.5t-11.5 4.5zM336 156q-7 0 -11.5 -4.5t-4.5 -11.5v-64q0 -7 4.5 -11.5t11.5 -4.5t11.5 4.5t4.5 11.5v64q0 7 -4.5 11.5t-11.5 4.5zM720.5 540q-6.5 0 -11 -4.5t-4.5 -11.5v-64q0 -6 4.5 -11t11 -5t11.5 5t5 11v64
q0 7 -5 11.5t-11.5 4.5zM720.5 156q-6.5 0 -11 -4.5t-4.5 -11.5v-64q0 -7 4.5 -11.5t11 -4.5t11.5 4.5t5 11.5v64q0 7 -5 11.5t-11.5 4.5zM720.5 412q-6.5 0 -11 -4.5t-4.5 -11.5v-64q0 -6 4.5 -11t11 -5t11.5 5t5 11v64q0 7 -5 11.5t-11.5 4.5zM961 444v128q0 27 -19 46
t-45 19h-769q-27 0 -45.5 -19t-18.5 -46v-128h16q60 0 102 -42t42 -102t-42 -102t-102 -42h-16v-128q0 -27 18.5 -45.5t45.5 -18.5h769q26 0 45 18.5t19 45.5v128q-54 0 -92.5 42t-38.5 102t38.5 102t92.5 42zM801 300.5q0 -63.5 36 -112t92 -61.5v-99q0 -13 -9.5 -22.5
t-22.5 -9.5h-769q-13 0 -22.5 9.5t-9.5 22.5v97q67 6 113.5 56t46.5 119t-46.5 119t-113.5 57v96q0 14 9.5 23t22.5 9h769q13 0 22.5 -9t9.5 -23v-99q-56 -13 -92 -61t-36 -111.5zM720.5 284q-6.5 0 -11 -4.5t-4.5 -11.5v-64q0 -7 4.5 -11.5t11 -4.5t11.5 4.5t5 11.5v64
q0 7 -5 11.5t-11.5 4.5z" />
    <glyph glyph-name="uniE63E" unicode="&#xe63e;" 
d="M848 -20h-480q-7 0 -11.5 -5t-4.5 -11.5t4.5 -11t11.5 -4.5h480q7 0 11.5 4.5t4.5 11t-4.5 11.5t-11.5 5zM848 76h-480q-7 0 -11.5 -5t-4.5 -11.5t4.5 -11t11.5 -4.5h480q7 0 11.5 4.5t4.5 11t-4.5 11.5t-11.5 5zM896 748h-576q-27 0 -45.5 -19t-18.5 -45v-480h-64
q-53 0 -90.5 -37.5t-37.5 -90.5v-96q0 -53 37.5 -91t90.5 -38h704q27 0 45.5 19t18.5 46v768q0 26 -18.5 45t-45.5 19zM192 -116q-40 0 -68 28t-28 68v96q0 39 28 67.5t68 28.5h64v-256q0 -18 8 -32h-72zM928 -84q0 -14 -9.5 -23t-22.5 -9h-576q-13 0 -22.5 9t-9.5 23v768
q0 13 9.5 22.5t22.5 9.5h576q13 0 22.5 -9.5t9.5 -22.5v-768zM848 652h-480q-7 0 -11.5 -4.5t-4.5 -11.5t4.5 -11.5t11.5 -4.5h480q7 0 11.5 4.5t4.5 11.5t-4.5 11.5t-11.5 4.5zM800 524h-384q-27 0 -45.5 -19t-18.5 -45v-224q0 -27 18.5 -45.5t45.5 -18.5h384
q27 0 45.5 18.5t18.5 45.5v224q0 26 -18.5 45t-45.5 19zM832 236q0 -14 -9.5 -23t-22.5 -9h-384q-13 0 -22.5 9t-9.5 23v224q0 13 9.5 22.5t22.5 9.5h384q13 0 22.5 -9.5t9.5 -22.5v-224z" />
    <glyph glyph-name="uniE63F" unicode="&#xe63f;" 
d="M128 507zM798 145l-169 139l162 135q11 3 11 15q0 4 -2 7v2h-1q-4 6 -12 6t-12 -7l-263 -223l-263 224q-5 7 -12.5 7t-11.5 -7h-1q-2 -4 -2 -8t2 -7v-1l2 -1q1 -2 4 -3l166 -139l-169 -139q-10 -4 -10 -14q0 -6 4.5 -10t10.5 -4q9 0 13 7l171 143l96 -80l96 80l173 -144
q5 -6 12 -6q6 0 10 4t4 10q0 11 -9 14zM896 635h-768q-26 0 -45 -18.5t-19 -45.5v-544q0 -27 19 -45.5t45 -18.5h768q27 0 45.5 18.5t18.5 45.5v544q0 27 -18.5 45.5t-45.5 18.5zM928 27q0 -13 -9 -22.5t-23 -9.5h-768q-13 0 -22.5 9.5t-9.5 22.5v544q0 13 9.5 22.5
t22.5 9.5h768q14 0 23 -9.5t9 -22.5v-544z" />
    <glyph glyph-name="uniE640" unicode="&#xe640;" 
d="M528 615v100h116q7 0 12 5t5 12t-5 11.5t-12 4.5h-265q-7 0 -12 -4.5t-5 -11.5t5 -12t12 -5h116v-100q-100 -4 -184 -56t-132.5 -138t-48.5 -187q0 -104 51 -192t139 -139t191.5 -51t191.5 51t139 139t51 192q0 101 -48.5 187t-132.5 138t-184 56zM511.5 -115
q-94.5 0 -175 47t-127 127t-46.5 174.5t46.5 175t127 127t175 46.5t175 -46.5t127 -127t46.5 -175t-46.5 -174.5t-127 -127t-175 -47zM711 250h-183v216q0 7 -5 12t-11.5 5t-11.5 -5t-5 -12v-232q0 -7 5 -12t11 -5h200q7 0 11.5 5t4.5 12t-4.5 11.5t-11.5 4.5z" />
    <glyph glyph-name="uniE641" unicode="&#xe641;" 
d="M897 523l-385 -384l-384 384h-64l448 -449l449 449h-64z" />
    <glyph glyph-name="uniE642" unicode="&#xe642;" 
d="M512 524l-449 -449h64l385 385l385 -385h64z" />
    <glyph glyph-name="uniE643" unicode="&#xe643;" 
d="M851.5 300q-6.5 0 -11.5 -4.5t-5 -11.5v-1v-322q0 -13 -9.5 -22.5t-22.5 -9.5h-161v193q0 27 -19 46t-46 19h-129q-26 0 -45 -19t-19 -46v-193h-162q-13 0 -22.5 9.5t-9.5 22.5v322v2q0 6 -4.5 11t-11.5 5t-11.5 -5t-4.5 -11v-2v-322q0 -27 19 -46t45 -19h581
q27 0 45.5 19t18.5 46v322v1q0 7 -4.5 11.5t-11 4.5zM609 -71h-193v193q0 14 9.5 23t22.5 9h129q14 0 23 -9t9 -23v-193zM960 445l-93 193q-21 65 -70 65h-569q-24 0 -43 -19t-27 -46l-93 -193h-1q12 -56 56 -92.5t102 -36.5q48 0 87 25t59 66q20 -41 59 -66t86 -25t86 25
t59 66q20 -41 59 -66t86 -25q58 0 102.5 36.5t55.5 92.5h-1zM803 348q-44 0 -79 27t-46 69q0 9 -6 15t-15 6t-15 -6t-6 -15v-5q-12 -40 -46 -65.5t-77 -25.5q-45 0 -79.5 27t-45.5 69v1q0 8 -6 14t-14.5 6t-14.5 -6t-6 -14v-1q-11 -42 -45.5 -69t-79 -27t-79.5 27.5
t-45 69.5l92 193q13 32 37 32h571q24 0 37 -32l92 -193h1q-11 -42 -45.5 -69.5t-79.5 -27.5zM722 541h-419q-7 0 -11.5 -4.5t-4.5 -11t4.5 -11.5t11.5 -5h419q7 0 11.5 5t4.5 11.5t-4.5 11t-11.5 4.5z" />
    <glyph glyph-name="uniE644" unicode="&#xe644;" 
d="M511.5 748q-91.5 0 -174 -35.5t-142.5 -95.5t-95.5 -142.5t-35.5 -174t35.5 -174t95.5 -142.5t142.5 -95.5t174 -35.5t174 35.5t142.5 95.5t95.5 142.5t35.5 174t-35.5 174t-95.5 142.5t-142.5 95.5t-174 35.5zM511.5 -115q-112.5 0 -208.5 55.5t-151.5 151.5
t-55.5 208.5t55.5 208.5t151.5 151.5t208.5 55.5t208.5 -55.5t151.5 -151.5t55.5 -208.5t-55.5 -208.5t-151.5 -151.5t-208.5 -55.5zM801 465q-11 11 -23 0l-321 -322l-215 214q-11 12 -22.5 0.5t0.5 -22.5l225 -226q12 -12 23 0l333 333q11 12 0 23z" />
    <glyph glyph-name="uniE645" unicode="&#xe645;" 
d="M378 516q0 62 -43.5 105.5t-105.5 43.5t-105.5 -43.5t-43.5 -105.5t43.5 -105.5t105.5 -43.5t105.5 43.5t43.5 105.5zM113 516q0 48 34 82t82 34t82 -34t34 -82t-34 -82t-82 -34t-82 34t-34 82zM793 267q-62 0 -105.5 -43.5t-43.5 -105.5t43.5 -105.5t105.5 -43.5
t105.5 43.5t43.5 105.5t-43.5 105.5t-105.5 43.5zM793 2q-48 0 -82 34t-34 82t34 82t82 34t82 -34t34 -82t-34 -82t-82 -34zM786 746.5q-6 3.5 -12.5 2t-10.5 -7.5l-566 -864q-3 -6 -1.5 -12.5t7 -10t12.5 -2t10 7.5l567 864q3 6 1.5 12.5t-7.5 10z" />
    <glyph glyph-name="uniE646" unicode="&#xe646;" 
d="M944 316h-864q-7 0 -12 -4.5t-5 -11.5t5 -11.5t12 -4.5h864q7 0 12 4.5t5 11.5t-5 11.5t-12 4.5z" />
    <glyph glyph-name="uniE647" unicode="&#xe647;" 
d="M944 316h-416v416q0 6 -4.5 11t-11.5 5t-11.5 -5t-4.5 -11v-416h-416q-7 0 -12 -4.5t-5 -11.5t5 -11.5t12 -4.5h416v-416q0 -7 4.5 -11.5t11.5 -4.5t11.5 4.5t4.5 11.5v416h416q7 0 12 4.5t5 11.5t-5 11.5t-12 4.5z" />
    <glyph glyph-name="uniE648" unicode="&#xe648;" 
d="M930 361l-352 352q-27 28 -65.5 28t-66.5 -28l-351 -352q-19 -19 -26.5 -43.5t2 -48.5t37.5 -36h62v-280q0 -39 27.5 -66.5t66.5 -27.5h471q6 0 10.5 5t4.5 11.5t-4.5 11t-10.5 4.5h-471q-26 0 -44.5 18t-18.5 44v280q0 13 -9 22t-22 9h-62q-33 33 9 75l351 352
q18 19 44 19t44 -19l352 -352q41 -42 8 -75h-62q-13 0 -22 -9t-9 -22v-187v-46q0 -6 4.5 -10.5t11 -4.5t11 4.5t4.5 10.5v63v170h62q30 11 39.5 35t1.5 49t-27 44zM652.5 -63q6.5 0 11 4.5t4.5 10.5v3v122q0 39 -27.5 66.5t-66.5 27.5h-124q-39 0 -66 -27.5t-27 -66.5v-121
v-3q0 -6 4.5 -10.5t10.5 -4.5t11 4.5t5 10.5v124q0 26 18 44.5t44 18.5h124q26 0 44 -18.5t18 -44.5v-124h1v-1q0 -6 4.5 -10.5t11 -4.5z" />
    <glyph glyph-name="uniE649" unicode="&#xe649;" 
d="M931 361l-353 353q-27 27 -65.5 27t-66.5 -27l-352 -353q-19 -19 -26.5 -43.5t2 -49t38.5 -35.5h62v-281q0 -39 27.5 -66.5t65.5 -27.5h498q39 0 66.5 27.5t27.5 66.5v281h62q30 10 39.5 34.5t1.5 49.5t-27 44zM637 -110h-249v187q0 26 18 44t44 18h125q25 0 43.5 -18
t18.5 -44v-187z" />
    <glyph glyph-name="uniE64A" unicode="&#xe64a;" 
d="M416 268h-288q-27 0 -45.5 -18.5t-18.5 -45.5v-288q0 -27 18.5 -45.5t45.5 -18.5h288q27 0 45.5 18.5t18.5 45.5v288q0 27 -18.5 45.5t-45.5 18.5zM448 -84q0 -13 -9.5 -22.5t-22.5 -9.5h-288q-13 0 -22.5 9.5t-9.5 22.5v288q0 13 9.5 22.5t22.5 9.5h288q13 0 22.5 -9.5
t9.5 -22.5v-288zM416 748h-288q-27 0 -45.5 -18.5t-18.5 -45.5v-288q0 -27 18.5 -45.5t45.5 -18.5h288q27 0 45.5 18.5t18.5 45.5v288q0 27 -18.5 45.5t-45.5 18.5zM448 396q0 -13 -9.5 -22.5t-22.5 -9.5h-288q-13 0 -22.5 9.5t-9.5 22.5v288q0 13 9.5 22.5t22.5 9.5h288
q13 0 22.5 -9.5t9.5 -22.5v-288zM896 748h-288q-26 0 -45 -18.5t-19 -45.5v-288q0 -27 19 -45.5t45 -18.5h288q27 0 45.5 18.5t18.5 45.5v288q0 27 -18.5 45.5t-45.5 18.5zM928 396q0 -13 -9.5 -22.5t-22.5 -9.5h-288q-13 0 -22.5 9.5t-9.5 22.5v288q0 13 9.5 22.5t22.5 9.5
h288q13 0 22.5 -9.5t9.5 -22.5v-288zM896 268h-288q-26 0 -45 -18.5t-19 -45.5v-288q0 -27 19 -45.5t45 -18.5h288q27 0 45.5 18.5t18.5 45.5v48q0 7 -4.5 11.5t-11.5 4.5t-11.5 -4.5t-4.5 -11.5v-48q0 -13 -9.5 -22.5t-22.5 -9.5h-288q-13 0 -22.5 9.5t-9.5 22.5v288
q0 13 9.5 22.5t22.5 9.5h288q13 0 22.5 -9.5t9.5 -22.5v-80q0 -7 4.5 -11.5t11.5 -4.5t11.5 4.5t4.5 11.5v80q0 27 -18.5 45.5t-45.5 18.5z" />
    <glyph glyph-name="uniE64B" unicode="&#xe64b;" 
d="M416 748h-288q-26 0 -45 -19t-19 -45v-288q0 -27 19 -45.5t45 -18.5h288q27 0 45.5 18.5t18.5 45.5v288q0 26 -18.5 45t-45.5 19zM896 748h-288q-26 0 -45 -19t-19 -45v-288q0 -27 19 -45.5t45 -18.5h288q27 0 45.5 18.5t18.5 45.5v288q0 26 -18.5 45t-45.5 19zM416 268
h-288q-26 0 -45 -19t-19 -45v-288q0 -27 19 -45.5t45 -18.5h288q27 0 45.5 18.5t18.5 45.5v288q0 26 -18.5 45t-45.5 19zM896 268h-288q-26 0 -45 -19t-19 -45v-288q0 -27 19 -45.5t45 -18.5h288q27 0 45.5 18.5t18.5 45.5v288q0 26 -18.5 45t-45.5 19z" />
    <glyph glyph-name="uniE64C" unicode="&#xe64c;" 
d="M801 -68q-14 0 -23.5 -9.5t-9.5 -22.5t9.5 -22.5t23.5 -9.5t23.5 9.5t9.5 22.5t-9.5 22.5t-23.5 9.5zM866 541h-674l-8 44v2l-1 1q0 4 -3 7q-23 48 -72 66q-5 2 -9 2q-1 0 -1 0.5t-1 0.5v-1q-6 0 -10 -4.5t-4 -11t4 -11t10 -4.5q37 -13 55 -48v-2l75 -397q-1 -6 -1 -13
q0 -59 42 -101t101 -43h1h512q7 0 11.5 5t4.5 11.5t-4.5 11t-11.5 4.5h-496q-43 0 -78 27.5t-46 68.5h108h496q40 0 68 28.5t28 67.5v193q0 39 -28 67.5t-68 28.5zM387 -68q-14 0 -23.5 -9.5t-9.5 -22.5t9.5 -22.5t23.5 -9.5t23.5 9.5t9.5 22.5t-9.5 22.5t-23.5 9.5z" />
    <glyph glyph-name="uniE64D" unicode="&#xe64d;" 
d="M560.5 124q-6.5 0 -11.5 -5t-5 -11q0 -14 -9 -23t-22.5 -9t-23 9t-9.5 23v1q0 6 -4.5 11t-11 5t-11.5 -5t-5 -11v-1q0 -27 19 -45.5t45.5 -18.5t45 18.5t18.5 45.5v0q0 6 -4.5 11t-11 5zM864 428q0 86 -42.5 160t-116.5 117t-161 43h-64q-87 0 -160.5 -43t-116.5 -117
t-43 -160q-39 0 -67.5 -28.5t-28.5 -68t28.5 -67.5t67.5 -28v-64q0 -87 43 -161t116.5 -116.5t160.5 -42.5h64q87 0 161 42.5t116.5 116.5t42.5 161v64q40 0 68 28t28 67.5t-28 68t-68 28.5zM700 179q4 -19 4 -39q0 -80 -56 -136t-135.5 -56t-136 56t-56.5 136q0 20 4 39
q-44 16 -72 58t-28 95q0 66 42.5 113t101.5 47h288q60 0 102 -47t42 -113q0 -53 -28 -95t-72 -58z" />
    <glyph glyph-name="uniE64E" unicode="&#xe64e;" 
d="M560.5 123q-6.5 0 -11 -4.5t-4.5 -11.5q0 -13 -9.5 -22.5t-23 -9.5t-23 9.5t-9.5 22.5v1q0 7 -4.5 11.5t-11 4.5t-11.5 -4.5t-5 -11.5v-1q0 -27 19 -45.5t45.5 -18.5t45.5 18.5t19 45.5v0v0q0 7 -5 11.5t-11.5 4.5zM865 427q-5 134 -102.5 227.5t-233.5 93.5h-33
q-136 0 -233.5 -93.5t-102.5 -227.5q-40 0 -68 -28t-28 -68t28 -68t68 -28v-144q0 -7 4.5 -11.5t11.5 -4.5t11.5 4.5t4.5 11.5v176h-32q-26 0 -45 19t-19 45.5t19 45t45 18.5h32v21q0 124 89 212t215 88h33q126 0 215 -88t89 -212v-21h32q26 0 45 -18.5t19 -45t-19 -45.5
t-45 -19h-32v-176q0 -7 4.5 -11.5t11.5 -4.5t11.5 4.5t4.5 11.5v144q40 0 68 28t28 68t-28 68t-68 28zM657 491h-289q-59 0 -101.5 -47t-42.5 -113q0 -53 28 -95t72 -57q-4 -20 -4 -40q0 -80 56.5 -136t136 -56t136 56t56.5 136q0 20 -4 40q44 15 72 57t28 95
q0 66 -42.5 113t-101.5 47zM694 210h-1h-1q0 -1 -1 -1v1h-35q17 -33 17 -71q0 -66 -47 -113t-113.5 -47t-113.5 47t-47 113q0 38 17 71h-35v-1q-35 13 -56.5 46.5t-21.5 75.5q0 53 33 90.5t79 37.5h289q46 0 79 -37.5t33 -90.5q0 -41 -21 -74.5t-54 -46.5z" />
    <glyph glyph-name="uniE64F" unicode="&#xe64f;" 
d="M718 301v-48l241 241l-241 241v-48l193 -193zM609 37q7 1 11 6t4 11.5t-4 11t-11 5.5v1q-74 13 -122.5 69.5t-47.5 131.5q1 92 61.5 148t147.5 56h114q8 0 13 5t5 12t-5 12t-13 5h-119q-99 0 -168.5 -70t-69.5 -168q0 -90 58.5 -157t145.5 -79zM933 307q-7 0 -12 -5
t-5 -12v-358q0 -14 -10 -24t-24 -10h-750q-14 0 -24 10t-10 24v579q0 14 10 24t24 10h154q7 0 12 5t5 12t-5 12t-12 5h-154q-28 0 -48 -20t-20 -48v-579q0 -28 20 -48t48 -20h750q28 0 48 20t20 48v358q0 7 -5 12t-12 5z" />
    <glyph glyph-name="uniE650" unicode="&#xe650;" 
d="M779 214h-89q-6 0 -10.5 -4t-4.5 -10.5t4.5 -10.5t10.5 -4h89q6 0 10 4t4 10.5t-4 10.5t-10 4zM823 303v88q0 25 -17.5 42t-41.5 17v118q0 25 -17.5 42t-41.5 17h-325q-24 0 -41.5 -17t-17.5 -42v-29h-118q-25 0 -42 -17.5t-17 -41.5v-472q0 -25 17 -42.5t42 -17.5h561
q24 0 41.5 17.5t17.5 42.5v88q24 0 41.5 17.5t17.5 41.5v89q0 24 -17.5 41.5t-41.5 17.5zM351 568q0 13 8.5 21.5t20.5 8.5h325q12 0 20.5 -8.5t8.5 -21.5v-118h-383v118zM173 480q0 12 9 20.5t21 8.5h118v-59h-148v30zM793 8q0 -13 -8.5 -21.5t-20.5 -8.5h-561
q-12 0 -21 8.5t-9 21.5v383v30h591q12 0 20.5 -8.5t8.5 -21.5v-88h-147q-25 0 -42 -17.5t-17 -41.5v-89q0 -24 17 -41.5t42 -17.5h147v-88zM852 155q0 -12 -8.5 -20.5t-20.5 -8.5h-177q-12 0 -21 8.5t-9 20.5v89q0 12 9 20.5t21 8.5h177q12 0 20.5 -8.5t8.5 -20.5v-89z" />
    <glyph glyph-name="uniE651" unicode="&#xe651;" 
d="M620 431.5q0 12.5 -9 21.5t-22 9t-22 -9t-9 -21.5t9 -22t22 -9.5t22 9.5t9 22zM466 431.5q0 12.5 -9 21.5t-22 9t-22 -9t-9 -21.5t9 -22t22 -9.5t22 9.5t9 22zM767 110q-2 1 -2 2h-1l-1 1zM960 184q-2 13 -15.5 13t-15.5 -13q0 -13 -36 -22t-87 -9q-20 0 -39 2q8 16 8 29
v31q0 14 -3 31h1h2q57 0 100 14.5t52 37.5q2 3 2 7v1v2q-2 13 -15 13t-16 -13q0 -13 -36 -22t-87 -9h-11q-5 15 -12 30q84 53 84 124q0 47 -38 88q8 17 8 36q0 38 -27.5 65.5t-65.5 27.5q-16 0 -31 -6v-56h-57q-5 -15 -5 -31q0 -38 27 -65.5t66 -27.5q41 0 68 31
q25 -30 25 -62q0 -55 -67 -98q-40 67 -88 67h-62h-154h-62q-48 0 -88 -67q-67 43 -67 98q0 32 24 62q28 -31 69 -31q39 0 66 27.5t27 65.5q0 16 -5 31h-57v56q-15 6 -31 6q-38 0 -65.5 -27.5t-27.5 -65.5q0 -19 8 -36q-38 -41 -38 -88q0 -71 84 -124q-7 -15 -12 -30h-11
q-51 0 -87 9t-36 22q-1 6 -5.5 10t-10.5 4t-10.5 -4t-4.5 -10v-1v-1q0 -2 1 -5q6 -23 50 -39t103 -16h2h1q-3 -17 -3 -31v-31q0 -13 8 -29q-19 -2 -39 -2q-51 0 -87 9t-36 22v2q0 6 -4.5 10.5t-11 4.5t-11 -4.5t-4.5 -10.5v-2q0 -25 45 -43.5t109 -18.5q29 0 56 4
q24 -34 66 -67q-10 -9 -21 -18q-38 -32 -71.5 -48.5t-42.5 -7.5q-5 7 -13 7q-6 0 -10.5 -4.5t-4.5 -11t4 -10.5v-1q16 -19 62.5 -4t95.5 56l26 24q62 -42 101 -42h92q39 0 101 42q12 -12 26 -24q45 -37 88.5 -53.5t63.5 -3.5q10 4 10 14q0 7 -5 11.5t-11 4.5q-7 0 -11 -5
q-9 -10 -42.5 6.5t-72.5 49.5q-11 9 -21 18q42 33 66 67q27 -4 56 -4q57 0 100 15t52 37q2 4 2 8v2zM712.5 493q-25.5 0 -43.5 18t-18 44h46q7 0 11.5 4.5t4.5 10.5v47q25 0 43.5 -18t18.5 -44t-18.5 -44t-44 -18zM311 617v-47q0 -6 4.5 -10.5t11.5 -4.5h46q0 -26 -18 -44
t-43.5 -18t-44 18t-18.5 44t18.5 44t43.5 18zM744 184q0 -24 -35.5 -61.5t-80.5 -65t-70 -27.5h-92q-25 0 -70 27.5t-80.5 65t-35.5 61.5v31q0 27 12 62.5t34.5 64t46.5 28.5h278q24 0 46.5 -28.5t34.5 -64t12 -62.5v-31zM257 110l4 3l-1 -1h-1q0 -1 -2 -2z" />
    <glyph glyph-name="uniE652" unicode="&#xe652;" 
d="M947 376q-17 18 -96 58q-5 3 -17.5 8t-18 8.5t-13 10t-10 16.5t-2.5 24q1 18 15 31.5t16 30.5q2 13 -3.5 18.5t-20 3.5t-29.5 -7t-40 -15q-20 -7 -32.5 -16.5t-15 -14t-8 -8t-9.5 0.5q-3 1 -21 16.5t-39 29t-63.5 26t-93.5 13.5t-97.5 -10t-76.5 -27t-53.5 -32t-38 -26
t-21.5 -8q-16 4 -29 4.5t-22.5 -3t-17.5 -10t-12.5 -16.5t-8 -21.5t-4.5 -26t-1.5 -28t1 -30.5t2.5 -31.5t4 -31.5q4 -33 15 -60.5t21 -43.5t18 -45.5t8 -69.5v-12q1 -19 0.5 -27t2.5 -20t4.5 -15.5t9.5 -9t14 -6.5t23 -3t30 -2h41q44 0 52.5 7.5t9.5 45.5q1 7 1 11q0 6 9 8
t25.5 0.5t34.5 -4t42.5 -4t44.5 -0.5q26 1 38.5 -4.5t15 -12.5t4.5 -22t5 -24q4 -10 66 -10.5t90 10.5q8 3 7.5 22.5t-3 39.5t2.5 36q4 12 14 18t43 17t61 24q102 44 126 62q14 12 13 77t-13 80zM884 219q-90 -46 -156 -62q-23 -6 -36.5 -12t-19 -14.5t-6.5 -16t-1 -20.5
q0 -7 1.5 -19.5t1.5 -17.5t-1.5 -13.5t-5.5 -12t-11 -7.5t-19.5 -4.5t-29.5 0.5q-22 1 -32 13t-10 25.5t-4 24.5t-15 11q-160 0 -213 20q-3 1 -9 3.5t-8.5 3.5t-7.5 2t-6 -0.5t-4 -4t-2.5 -9t0.5 -15.5q2 -25 0.5 -37.5t-8.5 -19t-20.5 -6.5t-34.5 1q-16 0 -25.5 1t-17 3.5
t-10.5 4t-5.5 8t-2.5 10.5t-0.5 15.5t-0.5 19.5q-1 13 -0.5 40t-0.5 28q-7 26 -33 83.5t-29 98.5q-2 30 -1.5 58t1.5 48.5t0 20.5v-2v2q4 5 10.5 2t20.5 -5t28 -2.5t32 8t34 27.5q23 27 78 48.5t110 22.5q95 2 144 -18t75 -53q13 -18 23.5 -22t18 1t20.5 21q11 13 27 23
t27 12.5t15 -0.5q2 -3 -1.5 -10.5t-7 -19t0.5 -33.5q3 -12 7.5 -20.5t12.5 -14.5t14 -9.5t18.5 -9t18.5 -8.5q9 -5 24.5 -13t21 -11t16 -9t13.5 -8l9 -8q6 -5 7 -8.5t3.5 -9.5t3 -12.5t0.5 -14.5q0 -12 1 -27.5t1 -21t-1.5 -13.5t-6.5 -12.5t-13 -10t-23 -13.5zM752 407
q-13 0 -22 -9t-9 -22t9 -22.5t22 -9.5t22 9.5t9 22.5t-9 22t-22 9z" />
    <glyph glyph-name="uniE653" unicode="&#xe653;" 
d="M378 -50h-233q-7 0 -12 -5t-5 -12t5 -12t12 -5h233q7 0 12 5t5 12t-5 12t-12 5zM878 683h-733q-7 0 -12 -5t-5 -12t5 -11.5t12 -4.5h733q7 0 12 4.5t5 11.5t-5 12t-12 5zM793 51q28 34 36 77q12 68 -27.5 124.5t-107.5 68.5t-125 -27.5t-69 -107.5t28 -124.5t108 -68.5
q74 -13 134 35l89 -100q5 -5 12 -5t12 5t5 11.5t-5 11.5zM641.5 26q-54.5 10 -86 55t-22 99.5t54.5 86t99.5 22t86.5 -55t22 -99.5t-55 -86t-99.5 -22zM378 316h-233q-7 0 -12 -4.5t-5 -11.5t5 -12t12 -5h233q7 0 12 5t5 12t-5 11.5t-12 4.5z" />
    <glyph glyph-name="uniE654" unicode="&#xe654;" 
d="M816 139q-38 0 -71 -18.5t-52 -50.5l-308 145q31 45 31 100q0 47 -23 88l299 127q19 -33 52 -52t72 -19q60 0 102 42t42 102t-42 102t-102 42t-102 -42t-42 -102q0 -23 7 -44l-305 -130q-53 62 -134 62q-73 0 -124.5 -51.5t-51.5 -124.5t51.5 -124.5t124.5 -51.5t124 51
l316 -148q-8 -23 -8 -47q0 -60 42 -102t102 -42t102 42t42 102t-42 102t-102 42zM816 715q46 0 79 -33t33 -79t-33 -79t-79 -33t-79 33t-33 79t33 79t79 33zM240 171q-60 0 -102 42t-42 102t42 102t102 42t102 -42t42 -102t-42 -102t-102 -42zM816 -117q-46 0 -79 33t-33 79
t33 79t79 33t79 -33t33 -79t-33 -79t-79 -33z" />
    <glyph glyph-name="uniE655" unicode="&#xe655;" 
d="M956 251l-415 415q-5 8 -14 8l-292 -75l-144 145q-12 11 -23 -0.5t0 -22.5l147 -146v-1l-76 -283q0 -1 1 -3q-2 -9 4 -15l417 -417q11 -12 22 0l373 372q11 12 0 23zM572 -111l-401 401v1l69 259l101 -101q-24 -28 -24 -64q0 -40 29 -69t69.5 -29t69 29t28.5 69.5
t-28.5 69t-69.5 28.5q-27 0 -50 -14l-104 104l262 67l400 -400zM351 385.5q0 26.5 19 45t45.5 18.5t45 -18.5t18.5 -45t-18.5 -45.5t-45 -19t-45.5 19t-19 45.5z" />
    <glyph glyph-name="uniE656" unicode="&#xe656;" 
d="M352 652h321q13 0 22.5 9.5t9.5 22.5v32q0 14 -9.5 23t-22.5 9h-321q-13 0 -22.5 -9t-9.5 -23v-32q0 -13 9.5 -22.5t22.5 -9.5zM368 716h289q6 0 11 -4.5t5 -11t-5 -11.5t-11 -5h-289q-6 0 -11 5t-5 11.5t5 11t11 4.5zM705 300v64q0 26 -19 45t-45 19h-257q-26 0 -45 -19
t-19 -45v-64h-256l32 -32v0l417 -417l416 417v0l32 32h-256zM513 -103l-371 371h210v96q0 13 9.5 22.5t22.5 9.5h257q13 0 22.5 -9.5t9.5 -22.5v-96h210zM352 492h321q13 0 22.5 9.5t9.5 22.5v32q0 13 -9.5 22.5t-22.5 9.5h-321q-13 0 -22.5 -9.5t-9.5 -22.5v-32
q0 -13 9.5 -22.5t22.5 -9.5zM368 556h289q6 0 11 -4.5t5 -11.5t-5 -11.5t-11 -4.5h-289q-6 0 -11 4.5t-5 11.5t5 11.5t11 4.5z" />
    <glyph glyph-name="uniE657" unicode="&#xe657;" 
d="M897 443h-44l-180 240q0 7 -4.5 11.5t-11 4.5t-11.5 -4.5t-5 -11.5l180 -240h-616l180 240q0 7 -4.5 11.5t-11 4.5t-11.5 -4.5t-5 -11.5l-180 -240h-44q-26 0 -45 -18.5t-19 -45.5q0 -18 10 -33.5t26 -23.5l156 -406q0 -7 5 -11.5t11 -4.5h480q7 0 11.5 4.5t4.5 11.5
l157 406q16 8 25.5 23.5t9.5 33.5q0 27 -18.5 45.5t-45.5 18.5zM385 -68h-102l-37 95h139v-95zM385 59h-144q-3 0 -6 -1l-38 97h188v-96zM385 187h-200l-49 128h249v-128zM609 -68h-192v95h192v-95zM609 59h-192v96h192v-96zM609 187h-192v128h192v-128zM743 -68h-102v95
h139zM792 58q-3 1 -7 1h-144v96h188zM842 187h-201v128h250zM897 347h-768q-13 0 -22.5 9.5t-9.5 23t9.5 22.5t22.5 9h768q13 0 22.5 -9t9.5 -22.5t-9.5 -23t-22.5 -9.5z" />
    <glyph glyph-name="uniE658" unicode="&#xe658;" 
d="M511.5 748q-91.5 0 -174 -35.5t-142.5 -95.5t-95.5 -143t-35.5 -174.5t35.5 -174t95.5 -142.5t142.5 -95.5t174 -35.5t174.5 35.5t143 95.5t95.5 142.5t35.5 174t-35.5 174.5t-95.5 143t-143 95.5t-174.5 35.5zM511.5 -115q-112.5 0 -208 55.5t-151 151t-55.5 208
t55.5 208t151 151t208 55.5t208 -55.5t151 -151t55.5 -208t-55.5 -208t-151 -151t-208 -55.5zM744 316h-216v249q0 7 -4.5 12t-11.5 5t-12 -5t-5 -12v-265q0 -7 5 -12t12 -5h232q7 0 12 5t5 12t-5 11.5t-12 4.5z" />
    <glyph glyph-name="uniE659" unicode="&#xe659;" 
d="M864 285v16q0 109 -53.5 201t-145.5 145.5t-201 53.5t-201 -53.5t-145.5 -145.5t-53.5 -201t53.5 -201t145.5 -145.5t201 -53.5q40 0 80 8v33q-39 -9 -80 -9q-100 0 -185 49.5t-134 134t-49 184.5t49 185t134 134t185 49t184.5 -49t134 -134t49.5 -185v-16h-96l112 -128
l112 128h-96z" />
    <glyph glyph-name="uniE65A" unicode="&#xe65a;" 
d="M226 386h102v22h-102v28l-53 -8v-20h-102v-22h102v-70h-109v-21h70l-67 -132h264l-46 105h-55l37 -84h-134l57 111h145v21h-109v70zM485 381h-27v28l27 3v20l-111 -11v-20l41 5v-25h-41v-19h41v-197h43v197h27v19zM374 165h29l8 184h-29zM539 422h-37l-13 -152h39z
M460 349l7 -184h25l-8 184h-24zM596 422l12 -115h37l-11 115h-38zM591 437l-46 -8v-159h28l-72 -105h56l88 129h-54v143zM767 338l57 32l57 -32h78l-96 53l75 41h-78l-36 -19l-36 19h-78l76 -41l-97 -53h78zM851 325v18l-52 -9v-9h-110v-19h110v-110l-12 -32h64v142h109v19
h-109zM874 295l33 -131h50l-33 131h-50zM689 164h49l33 131h-49z" />
    <glyph glyph-name="uniE65B" unicode="&#xe65b;" 
d="M196 50l1 -1l1 -1l1 1q4 -3 8 -3q7 0 12 5t5 12q0 8 -7 13v1q-63 93 -63 206q0 100 49.5 184.5t134 134t185.5 49.5q28 0 56 -4q5 -4 11 -4q7 0 12 5t5 12q0 10 -10 15l1 1q-37 7 -75 7q-109 0 -201.5 -53.5t-146 -146t-53.5 -200.5q0 -124 70 -226q1 -4 4 -7zM817 554
v-1q-5 4 -11 4q-7 0 -12 -4.5t-5 -11.5q0 -11 10 -15q92 -105 92 -243q0 -100 -49.5 -185t-134 -134.5t-184.5 -49.5q-53 0 -102 14q-5 3 -10 3q-7 0 -12 -4.5t-5 -11.5q0 -9 8 -14v-1h2q2 -1 5 -2q55 -16 114 -16q108 0 200.5 53.5t146 146t53.5 201.5q0 156 -106 271z
M603 363l224 384l-513 -416l192 -32l-320 -449l609 481z" />
    <glyph glyph-name="uniE65C" unicode="&#xe65c;" 
d="M511.5 -147q-185.5 0 -316.5 131t-131 316.5t131 316.5t316.5 131t316.5 -131t131 -316.5t-131 -316.5t-316.5 -131zM655 426l-4 12q-17 46 -55 75t-84 29q-50 0 -90 -32.5t-54 -83.5q-56 -8 -94 -55t-38 -111q0 -69 44 -117.5t107 -48.5h8q33 0 56.5 26t23.5 62
q0 28 -18 48t-43 20q-19 0 -33 -15t-14 -37q0 -11 6 -21q7 -10 17 -4q5 4 12 4q8 0 14 -6.5t6 -16t-6 -16t-14 -6.5q-25 0 -42.5 19.5t-17.5 46.5q0 33 21 56.5t51 23.5q36 0 61.5 -28t25.5 -68q0 -53 -37 -88h95q-37 35 -37 88q0 40 25.5 68t61.5 28q30 0 51 -23.5
t21 -56.5q0 -27 -17.5 -46.5t-42.5 -19.5q-8 0 -14 6.5t-6 16t6 16t14 6.5q7 0 12 -4q10 -6 17 4q6 10 6 21q0 22 -14 37t-33 15q-25 0 -43 -20t-18 -48q0 -36 23.5 -62t56.5 -26h8q63 0 107 48.5t44 117.5q0 64 -38 111t-94 55z" />
    <glyph glyph-name="uniE65D" unicode="&#xe65d;" 
d="M512 -148q-91 0 -174 35.5t-143 95.5t-95.5 143t-35.5 174t35.5 174t95.5 143t143 95.5t174 35.5t174 -35.5t143 -95.5t95.5 -143t35 -174t-35.5 -174t-95 -143t-143 -95.5t-174 -35.5zM401 361q0 32 -19 54q-9 11 -21 17t-25 6t-25 -6t-21 -17q-19 -22 -19 -54.5
t19 -54.5q9 -11 21 -17t25 -6t25 6t21 17q19 22 19 54v1zM405 249q-21 -14 -34.5 -25.5t-32.5 -32.5t-26.5 -46t-1.5 -53q5 -28 25 -43.5t45 -18.5t45 -2t33 5q23 7 71 7.5t73 -8.5q16 -7 42.5 -8t52.5 9t34 32q35 95 -26 132q-27 16 -48.5 40t-37.5 48t-21 29
q-29 30 -56 36t-47.5 -7.5t-36.5 -30.5t-31 -37.5t-22 -25.5zM532 488q0 32 -17 55q-9 10 -20 16t-23 6t-23 -6t-20 -17q-17 -22 -17 -54t17 -55q9 -11 20 -17t23 -6t23 6t20 17q17 22 17 54v1zM681 544q-7 12 -17.5 20t-22.5 10.5t-23.5 -1t-20.5 -12.5q-21 -19 -25 -50.5
t11 -57.5q7 -12 17 -20.5t22 -10.5t23.5 1.5t21.5 12.5q20 18 24 50t-10 58zM787 325q0 32 -19 54q-9 11 -21 17t-25 6t-25 -6t-21 -17q-19 -23 -19 -55t19 -54q9 -11 21 -17t25 -6t25 6t21 16q19 23 19 55v1z" />
    <glyph glyph-name="uniE65E" unicode="&#xe65e;" 
d="M512.5 -149q-91.5 0 -174.5 35.5t-143 95.5t-95.5 143t-35.5 174.5t35.5 174.5t95.5 143t143 95.5t174.5 35.5t174.5 -35.5t143 -95.5t95.5 -143t35.5 -174.5t-35.5 -174.5t-95.5 -143t-143 -95.5t-174.5 -35.5zM811 223q-36 3 -198 59q17 30 29.5 63t17.5 51l4 18h-8
h-56h-62v48h148v19h-148v73h-66v-73h-134v-21h134v-49h-113v-21h230q0 -3 -2 -8q0 -25 -30 -84q-31 12 -58.5 20.5t-48 12.5t-39 5t-30 0t-23 -3.5t-16.5 -4.5t-11 -5t-7 -3q-31 -23 -43 -50t-7 -49.5t17 -42t25 -30t19 -9.5q150 -33 252 89q2 -3 10 -3q17 -9 70.5 -35.5
t98.5 -47.5l45 -22v103zM324 185q-19 5 -29.5 26.5t-3.5 45.5t31 36q92 30 211 -30l-8 -11q-29 -37 -63 -56.5t-63 -20.5t-47 2t-28 8z" />
    <glyph glyph-name="uniE65F" unicode="&#xe65f;" 
d="M512 -148q-91 0 -174 35.5t-143 95.5t-95.5 143t-35.5 174t35.5 174t95.5 143t143 95.5t174 35.5t174 -35.5t143 -95.5t95.5 -143t35.5 -174t-35.5 -174t-95.5 -143t-143 -95.5t-174 -35.5zM724 524h-424v-49h424v49zM337 424v-190h350v190h-350zM736 124h-125
q23 36 43 83l-51 19q-20 -56 -46 -102h-89q-22 60 -49 102l-47 -19q29 -44 47 -83h-131v-48h448v48zM388 376h249v-93h-249v93z" />
    <glyph glyph-name="uniE660" unicode="&#xe660;" 
d="M461 228q-10 -8 -4 -18q5 -9 16 -1q10 8 5 17q-6 10 -17 2zM460 324q-68 -3 -116 -36t-48 -79t48 -76t116 -27q67 3 115.5 40t48.5 83q0 45 -47.5 71.5t-116.5 23.5zM522 170q-22 -29 -58.5 -37t-77.5 12q-11 6 -17.5 16.5t-6.5 17.5l-1 7q2 1 0 9.5t2.5 22t11 27
t24.5 25t43 14.5q32 4 54.5 -8t30.5 -31.5t6.5 -40t-11.5 -34.5zM418 216q-13 -1 -21.5 -10.5t-8.5 -20.5t9 -17.5t22 -5t22 10t9 19.5t-9 18t-23 6zM512.5 748q-91.5 0 -174.5 -35.5t-143 -95.5t-95.5 -143t-35.5 -174.5t35.5 -174.5t95.5 -143t143 -95.5t174.5 -35.5
t174.5 35.5t143 95.5t95.5 143t35.5 174.5t-35.5 174.5t-95.5 143t-143 95.5t-174.5 35.5zM705 189q-26 -57 -102 -88t-150 -25q-36 3 -68 11t-64 23t-52.5 43t-24.5 66q-1 5 -0.5 15t10 39t30.5 56q2 4 7 10.5t20.5 24t31.5 32.5t39 31t45 23q22 8 38.5 8t25.5 -4.5
t14 -13.5t6.5 -17t1.5 -18q-5 -18 -3.5 -25.5t21.5 -1.5q3 2 8 4t20 6.5t28 6t27.5 -1t23.5 -11.5q11 -11 12 -26.5t-4 -24.5l-4 -10q-1 -1 -2.5 -3t1 -6.5t12.5 -6.5t22.5 -8.5t26 -21t14.5 -35.5t-11 -51zM630 411q-6 0 -10.5 4.5t-4.5 10.5t4.5 10.5t10.5 4.5q4 1 10 1.5
t21.5 -2t27 -9.5t19 -26t4.5 -48v-1q-2 -13 -15 -13q-6 0 -10.5 4.5t-4.5 10.5q1 1 1 3.5t0.5 9.5t-0.5 12.5t-4 13t-9 10.5t-15.5 5.5t-24.5 -1.5zM788 330h-1q-1 -12 -6 -15.5t-14.5 -3.5t-15.5 5.5t-6 14.5l4 21q10 35 -6 73q-15 26 -41 39.5t-43.5 15.5t-23.5 -1l-20 -4
q-9 0 -15 6.5t-6 15.5q0 16 15 21h1h1l1 1q43 8 74 1q24 -6 45.5 -19t40.5 -36.5t23 -56.5t-7 -78z" />
    <glyph glyph-name="uniE661" unicode="&#xe661;" 
d="M512.5 -149q-91.5 0 -174.5 35.5t-143 95.5t-95.5 143t-35.5 174.5t35.5 174.5t95.5 143t143 95.5t174.5 35.5t174.5 -35.5t143 -95.5t95.5 -143t35.5 -174.5t-35.5 -174.5t-95.5 -143t-143 -95.5t-174.5 -35.5zM467 569q-63 -11 -114 -49q-51 -37 -80.5 -95t-29.5 -124
q0 -99 64 -175q71 35 115.5 108.5t44.5 162.5v172zM511 233q-12 -51 -46 -95t-82 -74q60 -34 128 -34q69 0 129 34q-48 30 -82 74t-47 95zM752 425q-29 57 -80 95t-114 49v-172q0 -89 44.5 -162.5t115.5 -108.5q64 76 64 175q0 66 -30 124z" />
    <glyph glyph-name="uniE662" unicode="&#xe662;" 
d="M512 -148q-91 0 -174 35.5t-143 95.5t-95.5 143t-35.5 174t35.5 174t95.5 143t143 95.5t174 35.5t174 -35.5t143 -95.5t95.5 -143t35.5 -174t-35.5 -174t-95.5 -143t-143 -95.5t-174 -35.5zM781 196v4v5l-1 8l-1 10l-2 10l-1 5l-2 5l-2 5l-2 5l-2 5l-2 6l-4 8l-4 8l-4 7
l-3 6l-4 6l-3 6l-5 8l-8 10l-2 3v1v1l1 3l2 4l1 6l1 3v4l1 2v3l-1 3v3l-1 5l-2 5l-1 4l-2 5l-2 4l-2 3l-2 4l-3 5l-1 1l-1 2l-1 9l-1 7l-1 8l-2 8l-2 9l-2 5l-1 4l-1 6l-2 5l-2 5l-2 5l-5 11l-3 5l-3 6l-3 4l-4 6l-4 5l-4 5l-4 5l-5 5l-5 4l-5 5l-3 2l-3 2l-6 4l-7 4l-7 4
l-7 4l-8 3l-8 3l-8 3l-8 2l-8 2l-8 2l-8 2l-9 1l-8 1l-8 1h-9h-8h-8l-9 -1l-8 -1l-7 -1l-8 -1l-8 -2l-8 -1l-7 -3l-7 -2l-7 -2l-7 -3l-7 -3l-6 -3l-6 -4l-6 -4l-5 -4l-5 -4l-7 -6l-6 -6l-6 -6l-5 -6l-5 -6l-4 -6l-4 -6l-2 -3l-2 -3l-4 -5l-3 -6l-3 -5l-2 -6l-2 -5l-2 -5
l-2 -5l-2 -4l-2 -9l-2 -8l-1 -7l-1 -6v-5v-3v-4l-2 -1l-1 -3l-2 -2l-1 -2l-1 -5l-1 -5l-1 -4v-3v-3l-4 -5l-2 -5l-2 -4l-1 -4l-1 -4l-1 -3v-3v-4v-3v-2l1 -4l1 -3l-2 -1l-5 -4l-7 -6l-4 -4l-4 -3l-3 -3l-2 -3l-5 -5l-5 -5l-4 -5l-4 -6l-5 -6l-4 -6l-4 -6l-3 -7l-3 -6l-2 -5
l-2 -6l-2 -6l-2 -6l-2 -6l-1 -5v-6l-1 -5l-1 -10v-9v-4l1 -4l1 -7v-3l1 -3l1 -3l1 -2l2 -4l1 -1l1 -2h1h1h4l4 1l4 2l4 2l3 2l3 3l4 3l2 3l3 3l3 4l2 2l1 3l3 5l1 2v1l1 2v1h1h1h1h1l1 -7l2 -5l2 -6l2 -5l2 -5l3 -4l3 -5l2 -4l3 -4l2 -3l6 -7l5 -6l4 -4l5 -4l4 -4l6 -5l3 -1
l1 -1v-1h-1h-1l-5 -1h-4l-4 -1l-4 -1l-3 -1l-3 -1l-3 -1l-2 -1l-3 -1l-2 -2l-2 -1l-2 -1l-2 -4l-1 -1l-2 -1l-1 -3l-1 -3l-1 -3v-2v-3v-2l-1 -2v-2l-1 -3v-2l1 -2l1 -2l1 -3l1 -2l1 -2l1 -2l2 -1l1 -2l2 -1l4 -3l4 -3l5 -2l5 -2l6 -2l6 -2l6 -1l6 -2l7 -1l6 -1l7 -1l14 -1
h14h13h6h6h6l5 1h5h5l8 2l5 1l5 2l10 3l4 2l5 2l6 4l7 3l4 2l3 3h6l4 -1h8h4h3l2 -1l3 -1l4 -1l4 -1l8 -3l9 -3l8 -2l8 -2l9 -2l9 -1l8 -1l9 -1l7 -1h9h8h8h7l8 1h7l7 1l7 1l6 2l6 1l3 1l3 1l5 2l5 2l5 2l4 3l4 2l1 2l2 2l2 2l3 4l1 1v2l1 2v1v2l1 2l-1 3v2l-1 3l-1 2l-1 3
l-2 2l-2 2l-3 2l-4 4l-6 4l-6 4l-6 3l-13 6l-4 2v1l-1 1l7 6l2 3l3 3l4 6l5 7l3 5l4 6l4 11l4 9l2 7l2 2v2l2 1h1v-1l3 -6l4 -7l2 -3l2 -3l2 -4l3 -4l3 -3l1 -1l2 -1l1 -1l1 -1l3 -1l1 -1h1h2l1 1h2l2 1l2 2l1 1l2 2l1 2l2 3l1 2l2 3v2l2 6l2 7l1 7v5v3z" />
    <glyph glyph-name="uniE663" unicode="&#xe663;" 
d="M895 110q-5 97 -68 171t-157 96q43 21 68.5 62t25.5 91q0 61 -39 108t-98 60q-4 3 -31 3h-4q-6 0 -10 -3.5t-4 -9t4 -9.5t10 -4h13v-1q56 -5 94 -46.5t38 -98t-38 -98t-94 -46.5v-1h-13q-6 0 -10 -4t-4 -9.5t4 -9t10 -3.5h13q109 0 186.5 -77.5t77.5 -187.5v-13
q0 -6 4 -9.5t9.5 -3.5t9.5 3.5t4 9.5v26q0 2 -1 4zM485 377q42 21 67.5 62t25.5 91q0 71 -50 121t-121.5 50t-121.5 -50t-50 -121q0 -52 28 -95t74 -63q-87 -26 -144.5 -97.5t-63.5 -164.5v-4v-26q0 -6 4 -9.5t9.5 -3.5t9 3.5t3.5 9.5v13q0 110 77.5 187.5t187 77.5
t187 -77.5t77.5 -187.5v-13q0 -6 4 -9.5t9.5 -3.5t9.5 3.5t4 9.5v26q0 2 -1 4q-5 97 -68 171t-157 96zM406.5 384q-60.5 0 -103 42.5t-42.5 103t42.5 103t103 42.5t103 -42.5t42.5 -103t-42.5 -103t-103 -42.5z" />
    <glyph glyph-name="uniE664" unicode="&#xe664;" 
d="M159 469l353 -360l355 362q5 4 5 10t-4 10t-10 4t-10 -4l-322 -328v585q0 6 -4 10t-10 4t-10 -4t-4 -10v-585l-322 328q-4 3 -9 3q-6 0 -10 -4t-4 -10q0 -7 6 -11zM882 321q-6 0 -10 -4t-4 -10h-1v-227q0 -12 -8 -20t-20 -8h-654q-12 0 -20 8t-8 20v225v2q0 6 -4 10
t-10 4t-10 -4t-4 -10h-1v-227q0 -23 17 -40t40 -17h654q23 0 40 17t17 40v225v2q0 6 -4 10t-10 4z" />
    <glyph glyph-name="uniE665" unicode="&#xe665;" 
d="M388.5 357q-5.5 0 -9.5 -4t-4 -10t4 -10t9.5 -4t9.5 4t4 10t-4 10t-9.5 4zM744 192h-246q-6 0 -10 -4t-4 -9.5t4 -9.5t10 -4h246q6 0 10 4t4 9.5t-4 9.5t-10 4zM388.5 192q-5.5 0 -9.5 -4t-4 -9.5t4 -9.5t9.5 -4t9.5 4t4 9.5t-4 9.5t-9.5 4zM388.5 521q-5.5 0 -9.5 -4
t-4 -10t4 -10t9.5 -4t9.5 4t4 10t-4 10t-9.5 4zM812 685h-492q-23 0 -39 -16t-16 -39v-574q0 -23 16 -39t39 -16h492q23 0 39 16t16 39v574q0 23 -16 39t-39 16zM840 56q0 -12 -8 -20t-20 -8h-492q-11 0 -19 8t-8 20v574q0 12 8 20t19 8h492q12 0 20 -8t8 -20v-574zM744 357
h-246q-6 0 -10 -4t-4 -10t4 -10t10 -4h246q6 0 10 4t4 10t-4 10t-10 4zM744 521h-246q-6 0 -10 -4t-4 -10t4 -10t10 -4h246q6 0 10 4t4 10t-4 10t-10 4zM210 110q-11 0 -19 8t-8 20v574q0 12 8 20t19 8h493q11 0 19 -8t8 -20q0 -5 4 -9t10 -4t10 4t4 9q0 23 -16 39t-39 16
h-493q-22 0 -38 -16t-16 -39v-574q0 -23 16 -39t38 -16q6 0 10 4t4 9.5t-4 9.5t-10 4z" />
    <glyph glyph-name="uniE666" unicode="&#xe666;" 
d="M215 101h-49h-1q-12 30 -12 62q0 60 39.5 108t101.5 67q12 1 12 13q0 6 -3.5 10t-9.5 4q-41 20 -65.5 58.5t-24.5 85.5q0 63 43 109.5t105 50.5v1q5 0 9 3.5t4 8.5t-4 9t-9 4q-2 0 -4 -1q-71 -7 -120 -60t-49 -125q0 -48 23 -89.5t62 -66.5q-60 -26 -97 -77t-37 -113
q0 -46 21 -87h65q5 0 9 4t4 9t-4 8.5t-9 3.5zM761 353q39 25 62 66.5t23 89.5q0 72 -49 125t-120 60q-2 1 -4 1q-5 0 -9 -4t-4 -9t4 -8.5t9 -3.5v-1q62 -4 105 -50.5t43 -109.5q0 -47 -24.5 -85.5t-65.5 -58.5q-13 -1 -13 -14q0 -11 12 -13q62 -19 101.5 -67t39.5 -108
q0 -32 -12 -62h-1h-49q-5 0 -9 -3.5t-4 -8.5t4 -9t9 -4h65q21 41 21 87q0 62 -37 113t-97 77zM612 353q39 25 62 66.5t23 89.5q0 77 -54 131.5t-131 54.5t-131 -54.5t-54 -131.5q0 -48 23 -89.5t62 -66.5q-61 -26 -98 -77t-37 -113q0 -46 21 -87h428q21 41 21 87
q0 62 -37 113t-98 77zM710 101h-396q-12 30 -12 62q0 60 39 108t101 67q12 1 12 13q0 6 -3.5 9.5t-9.5 4.5q-40 20 -65 58.5t-25 85.5q0 67 47 114t114 47t114 -47t47 -114q0 -47 -25 -85.5t-65 -58.5q-6 0 -10 -4t-4 -10q0 -11 12 -13q62 -19 101.5 -67t39.5 -108
q0 -32 -12 -62z" />
    <glyph glyph-name="uniE667" unicode="&#xe667;" 
d="M784 741h-543q-47 0 -80.5 -33.5t-33.5 -80.5v-486q0 -47 33.5 -80.5t80.5 -33.5h543q47 0 80.5 33.5t33.5 80.5v486q0 47 -33.5 80.5t-80.5 33.5zM776 129h-31v28h-451v-28h-31v524h513v-524zM745 625h-451v-441h451v441zM699 483h-109v-216q0 -25 -18 -32
q-14 -5 -79 -5q-2 10 -11 27q51 -2 68 0q10 0 10 10v179q-78 -95 -201 -166q-9 13 -20 19q60 34 118 83t95 101h-208v28h216v84h30v-84h109v-28z" />
    <glyph glyph-name="uniE668" unicode="&#xe668;" 
d="M782 739h-540q-47 0 -80 -33.5t-33 -80.5v-482q0 -47 33 -80.5t80 -33.5h540q47 0 80 33.5t33 80.5v482q0 47 -33 80.5t-80 33.5zM415 333q23 42 43 96h-85v-260q0 -26 -19 -32q-15 -5 -84 -5q-3 16 -10 27q59 -1 72 0q12 1 12 10v260h-108v28h165q-61 49 -131 95l18 18
q33 -21 59 -39q47 38 83 91h-182v26h202l5 2l20 -13q-42 -67 -106 -122q39 -27 62 -46l-11 -12h52l5 1l18 -6q-39 -97 -56 -126zM485 133q-8 14 -18 22q44 14 75.5 33.5t48.5 38.5t26.5 43.5t12 42.5t2.5 41v126h29v-126q0 -26 -2.5 -46.5t-13 -47t-29 -47.5t-52 -42.5
t-79.5 -37.5zM779 133q-44 48 -119 103l20 19q79 -57 119 -101zM801 624h-127l-27 -72h129v-285h-29v258h-195v-258h-29v285h94q12 31 23 72h-141v27h302v-27z" />
    <glyph glyph-name="uniE669" unicode="&#xe669;" 
d="M512.5 768q-104.5 0 -193 -51.5t-140 -140t-51.5 -193t51.5 -193t140 -140t193 -51.5t193 51.5t140 140t51.5 193t-51.5 193t-140 140t-193 51.5zM501.5 160q-12.5 0 -21.5 9.5t-9 22t9 21.5t21.5 9t22 -9t9.5 -21.5t-9.5 -22t-22 -9.5zM630.5 436q-13.5 -24 -52.5 -59
q-27 -24 -35 -35t-12 -25q-3 -13 -4 -37q1 -2 1 -5q0 -11 -8 -19t-19 -8q-9 0 -16.5 6t-9.5 16q-1 9 -1 16q0 32 9 55q7 17 22 35q11 13 39 38t36.5 39.5t8.5 31.5q0 32 -25 56t-60 24t-58 -22q-23 -21 -30 -65q-1 -11 -9 -18.5t-19 -7.5q-12 0 -20 8.5t-8 19.5q0 3 1 6
q8 59 44 90q37 33 98 33q64 0 102.5 -35t38.5 -85q0 -29 -13.5 -53z" />
    <glyph glyph-name="uniE66A" unicode="&#xe66a;" 
d="M779 180q65 77 65 184.5t-63 186.5t-168 113q-2 1 -12.5 4.5t-14.5 5t-13.5 5.5t-14.5 7.5t-13.5 10.5t-14.5 14.5t-13 18t-14 23.5q-7 -22 -17.5 -37t-24.5 -23.5t-23 -12t-25.5 -6.5t-19.5 -4q-108 -30 -169 -110.5t-61 -195.5q0 -118 77 -199q-28 -5 -56 -15t-41 -17
l-14 -8q3 -3 8.5 -9.5t23 -22.5t37 -29.5t48 -26.5t57.5 -18q78 -14 136.5 -1.5t64.5 42.5v4h12q10 -29 68 -39.5t134 2.5q29 5 58 18.5t49.5 28.5t36.5 30t24 24t8 10q-49 30 -115 42zM475 65q-8 -21 -64 -26.5t-112 8.5q-32 8 -63 26.5t-46 32.5t-15 15q41 16 90 21
q85 -69 210 -77zM506 92h-8q-84 0 -153 32.5t-111 96.5t-42 148q0 104 60 180.5t146 97.5q1 0 16 3.5t19.5 5t17.5 5t19 7t14.5 8.5t13 11t7.5 13q9 -17 23 -28.5t23.5 -15t28 -8.5t24.5 -7q97 -32 154.5 -105t57.5 -171q0 -106 -72 -177t-178 -90q52 30 89 81
q28 42 37.5 71t9.5 73q-1 8 -6.5 10.5t-11 -1t-5.5 -9.5v-7v-10q0 -3 -0.5 -11t-2 -14t-4.5 -16t-6.5 -19.5t-9.5 -21.5t-14 -25q-38 -63 -136 -107zM712 54q-51 -9 -96.5 -6t-61.5 19q124 14 204 90q23 -3 46.5 -9t35.5 -11l12 -5q-7 -7 -19 -18t-49 -32.5t-72 -27.5z
M691 371q5 0 8.5 3.5t3.5 8.5t-3.5 8.5t-8.5 3.5t-8.5 -3.5t-3.5 -8.5t3.5 -8.5t8.5 -3.5z" />
    <glyph glyph-name="uniE66B" unicode="&#xe66b;" 
d="M807 686h-586q-28 0 -47.5 -19.5t-19.5 -47.5v-137q36 -8 60 -35t24 -62.5t-24 -62.5t-60 -35v-137q0 -28 19.5 -47.5t47.5 -19.5h586q28 0 47.5 19.5t19.5 47.5v469q0 28 -19.5 47.5t-47.5 19.5zM355 116q-7 0 -12 5t-5 12t5 12t12 5t12 -5t5 -12t-5 -12t-12 -5z
M355 200q-7 0 -12 5t-5 12t5 12t12 5t12 -5t5 -12t-5 -12t-12 -5zM355 284q-7 0 -12 5t-5 12t5 11.5t12 4.5t12 -4.5t5 -11.5t-5 -12t-12 -5zM355 368q-7 0 -12 5t-5 11.5t5 11.5t12 5t12 -5t5 -11.5t-5 -11.5t-12 -5zM355 451q-7 0 -12 5t-5 12t5 12t12 5t12 -5t5 -12
t-5 -12t-12 -5zM355 535q-7 0 -12 5t-5 12t5 12t12 5t12 -5t5 -12t-5 -12t-12 -5zM355 619q-7 0 -12 5t-5 12t5 11.5t12 4.5t12 -4.5t5 -11.5t-5 -12t-12 -5zM622.5 234q-62.5 0 -106.5 44t-44 106.5t44 106.5t106.5 44t107 -44t44.5 -106.5t-44.5 -106.5t-107 -44z" />
    <glyph glyph-name="uniE66C" unicode="&#xe66c;" 
d="M512 743q-98 0 -181 -48t-131 -131t-48 -181t48 -181t131 -131t181 -48t181 48t131 131t48 181t-48 181t-131 131t-181 48zM733 370q-2 -2 -7.5 -11t-11 -17.5t-14 -20t-19.5 -25t-23 -25.5q-27 -27 -63.5 -59t-59.5 -51l-23 -18q-87 68 -149 131q-14 15 -27.5 31.5
t-20.5 26.5t-15 23.5t-9 14.5q-19 29 -19 65q0 50 35 85t85 35q37 0 67.5 -21t43.5 -54q3 -6 5 -17.5t3 -19.5l1 -8q3 31 9 45q14 33 44 54t67 21q50 0 85 -35t35 -85q0 -36 -19 -65z" />
    <glyph glyph-name="uniE66D" unicode="&#xe66d;" 
d="M767 701q0 22 -15.5 37.5t-37.5 15.5h-532q-22 0 -38 -15.5t-16 -37.5v-373q0 -22 16 -37.5t38 -15.5h16v332q0 14 10 24t24 10h535v60zM845 583h-551q-21 0 -35.5 -14.5t-14.5 -35.5v-384q0 -20 14.5 -35t35.5 -15h175q3 -6 8 -11l62 -63q13 -13 31.5 -13t31.5 13l62 63
q5 5 9 11h172q21 0 35.5 15t14.5 35v384q0 21 -14.5 35.5t-35.5 14.5zM409 309q-19 0 -32.5 13.5t-13.5 32.5t13.5 32.5t32.5 13.5t32.5 -13.5t13.5 -32.5t-13.5 -32.5t-32.5 -13.5zM575 309q-19 0 -32.5 13.5t-13.5 32.5t13.5 32.5t32.5 13.5t32.5 -13.5t13.5 -32.5
t-13.5 -32.5t-32.5 -13.5zM740 309q-19 0 -32.5 13.5t-13.5 32.5t13.5 32.5t32.5 13.5t32.5 -13.5t13.5 -32.5t-13.5 -32.5t-32.5 -13.5z" />
    <glyph glyph-name="uniE66E" unicode="&#xe66e;" 
d="M828 691h-633q-28 0 -47.5 -19.5t-19.5 -47.5v-483q0 -28 19.5 -47.5t47.5 -19.5h633q28 0 47.5 19.5t19.5 47.5v483q0 28 -19.5 47.5t-47.5 19.5zM261 558h134q13 0 23 -10t10 -23.5t-10 -23.5t-23 -10h-134q-13 0 -23 10t-10 23.5t10 23.5t23 10zM470 224h-217
q-10 0 -17.5 7.5t-7.5 18t7.5 17.5t17.5 7h217q10 0 17.5 -7t7.5 -17.5t-7.5 -18t-17.5 -7.5zM470 358h-217q-10 0 -17.5 7t-7.5 17.5t7.5 18t17.5 7.5h217q10 0 17.5 -7.5t7.5 -18t-7.5 -17.5t-17.5 -7zM811 258q0 -14 -9.5 -24t-23.5 -10h-167q-13 0 -23 10t-10 24v33
q0 37 20.5 66.5t53.5 42.5q-41 23 -41 70q0 34 23.5 57.5t56.5 23.5t56.5 -23.5t23.5 -57.5q0 -45 -38 -69q35 -12 56.5 -42t21.5 -68v-33z" />
    <glyph glyph-name="uniE66F" unicode="&#xe66f;" 
d="M511.5 767q-94.5 0 -174.5 -46.5t-126.5 -127.5t-46.5 -176q0 -40 20 -84.5t48.5 -82.5t68.5 -78.5t73 -68t69 -54.5t48.5 -35.5t20.5 -12.5q7 4 19.5 12.5t48.5 35.5t69 54.5t73 68t68.5 78.5t48.5 82.5t20 84.5q0 95 -46.5 176t-126.5 127.5t-174.5 46.5zM511.5 281
q-67.5 0 -115 48t-47.5 115.5t47.5 115t115 47.5t115.5 -47.5t48 -115t-48 -115.5t-115.5 -48z" />
    <glyph glyph-name="uniE670" unicode="&#xe670;" 
d="M781 180q65 77 65 184.5t-63.5 186.5t-168.5 114q-3 1 -13 4.5t-14 5t-13.5 5.5t-14.5 7.5t-13.5 10t-14.5 14t-13.5 18.5t-13.5 24q-7 -22 -17.5 -37t-24.5 -23.5t-23.5 -12t-26 -7t-19.5 -3.5q-109 -31 -170 -111.5t-61 -194.5q0 -119 78 -200q-29 -5 -56.5 -15
t-41.5 -18l-14 -7q3 -4 8.5 -10t23.5 -22t37 -29.5t48 -27t58 -18.5q78 -13 137 -1t64 43q1 2 1 4h11q11 -29 69 -40t134 2q29 6 58 19t49.5 28.5t37 30t24.5 24.5l8 9q-49 31 -115 43zM665 443q12 0 20.5 -9t8.5 -21t-8.5 -20.5t-20.5 -8.5t-20.5 8.5t-8.5 20.5t8.5 21
t20.5 9zM529 103q-18 -4 -27 5.5t-4.5 23t20.5 18.5q43 16 68 31.5t38.5 37.5t17.5 46.5t3 66.5h50q3 -35 -2 -64.5t-14 -50t-24 -39t-28 -29t-31 -20t-28 -13.5t-24 -8z" />
    <glyph glyph-name="uniE671" unicode="&#xe671;" 
d="M810 690h-596q-21 0 -36 -15t-15 -36v-511q0 -21 15 -36t36 -15h596q21 0 36 15t15 36v511q0 21 -15 36t-36 15zM605 656v-304l-78 68q-12 9 -23 -1l-86 -69v306h187zM197 622q0 14 10 24t24 10h153v-170h-187v136zM827 145q0 -14 -10 -24t-24 -10h-562q-14 0 -24 10
t-10 24v306h187v-136q0 -6 4 -11t10 -6h3q8 0 13 6l101 81l96 -83l4 -2t7 -2q7 0 12 5t5 12v136h188v-306zM827 486h-188v170h154q14 0 24 -10t10 -24v-136z" />
    <glyph glyph-name="uniE672" unicode="&#xe672;" 
d="M796.5 275q-6.5 0 -11.5 -5t-5 -12v-117q0 -14 -10 -23.5t-24 -9.5h-551q-13 0 -23 9.5t-10 23.5v351h651v150q0 21 -14.5 35.5t-35.5 14.5h-584q-21 0 -35.5 -14.5t-14.5 -35.5v-518q0 -20 14.5 -35t35.5 -15h584q21 0 35.5 15t14.5 35v134q0 7 -5 12t-11.5 5zM162 625
q0 14 10 24t23 10h551q14 0 24 -10t10 -24v-100h-618v100zM429 358h-184q-6 0 -11 -5t-5 -12t5 -11.5t11 -4.5h184q7 0 12 4.5t5 11.5t-5 12t-12 5zM429 241h-184q-6 0 -11 -5t-5 -11.5t5 -11.5t11 -5h184q7 0 12 5t5 11.5t-5 11.5t-12 5zM891.5 491.5q-4.5 5.5 -11.5 5.5
t-12 -4l-178 -173l-89 98q-4 5 -11 5.5t-12 -4t-5.5 -11.5t4.5 -12l100 -112q5 -5 12 -5t12 4l189 185q6 5 6 11.5t-4.5 12z" />
    <glyph glyph-name="uniE673" unicode="&#xe673;" 
d="M720.5 244q-43.5 0 -74 -30.5t-30.5 -74.5h-191q0 44 -30.5 74.5t-74 30.5t-74 -30.5t-30.5 -74t30.5 -74t73.5 -30.5q34 0 61.5 19.5t37.5 51.5q3 -1 6 -1h191q3 0 6 1q10 -32 37.5 -51.5t60.5 -19.5q44 0 74.5 30.5t30.5 74t-30.5 74t-74 30.5zM320.5 70
q-28.5 0 -49 20.5t-20.5 49t20.5 49t49 20.5t49 -20.5t20.5 -49t-20.5 -49t-49 -20.5zM720.5 70q-28.5 0 -49 20.5t-20.5 49t20.5 49t49 20.5t49 -20.5t20.5 -49t-20.5 -49t-49 -20.5zM894 420q-2 12 -13 15l-178 182q-1 1 -3 2q-6 7 -14 7h-105v87q0 7 -5 12.5t-12 5.5
h-383q-21 0 -36.5 -15.5t-15.5 -36.5v-505q0 -7 5 -12t12.5 -5t12.5 5t5 12v487q0 15 10 25t25 10h348v-87q0 -7 5 -12t12 -5h116q0 -1 1 -2l179 -183v-233q0 -7 5 -12t12 -5t12 5t5 12v231q4 8 0 15zM546.5 522q-7.5 0 -12.5 -5t-5 -12v-157q0 -7 5 -12t13 -5h243q7 0 12 5
t5 12t-5 12.5t-12 5.5h-226v139q0 7 -5 12t-12.5 5z" />
    <glyph glyph-name="uniE674" unicode="&#xe674;" 
d="M843 489h-17v157q0 22 -15.5 37t-37.5 15h-592q-22 0 -37.5 -15t-15.5 -37v-523q0 -22 15.5 -37.5t37.5 -15.5h592q22 0 37.5 15.5t15.5 37.5v139h17q22 0 37.5 15.5t15.5 37.5v122q0 21 -15.5 36.5t-37.5 15.5zM791 140q0 -14 -10.5 -24.5t-24.5 -10.5h-558
q-14 0 -24.5 10.5t-10.5 24.5v488q0 15 10.5 25t24.5 10h558q14 0 24.5 -10t10.5 -25v-139h-209q-22 0 -37.5 -15.5t-15.5 -36.5v-122q0 -22 15.5 -37.5t37.5 -15.5h209v-122zM861 332q0 -14 -10.5 -24.5t-24.5 -10.5h-227q-14 0 -24.5 10.5t-10.5 24.5v87q0 15 10.5 25
t24.5 10h227q14 0 24.5 -10t10.5 -25v-87zM651 402h-34q-8 0 -13 -5t-5 -12.5t5 -12.5t13 -5h34q8 0 13 5t5 12.5t-5 12.5t-13 5z" />
    <glyph glyph-name="uniE675" unicode="&#xe675;" 
d="M818 721h-248q-17 0 -29.5 -12t-12.5 -29t12.5 -29t29.5 -12h149l-262 -262q-12 -12 -12 -28.5t12 -28.5t28.5 -12t28.5 12l262 262v-150q0 -17 12.5 -29t29.5 -12t29 12t12 29v248q0 17 -12 29t-29 12zM818 126h-571v554q0 17 -12 29t-29 12t-29.5 -12t-12.5 -29v-595
q0 -18 12.5 -30t29.5 -12h612q17 0 29 12t12 29.5t-12 29.5t-29 12z" />
    <glyph glyph-name="uniE676" unicode="&#xe676;" 
d="M496 471q-14 14 -34 14t-34 -14l-101 -102q-14 -14 -14 -33.5t14 -34.5l101 -101q14 -14 34 -14t34 14l102 101q14 15 14 34.5t-14 33.5zM581 318l-102 -101q-7 -7 -17 -7t-17 7l-101 101q-7 7 -7 17t7 17l101 102q7 7 17 7t17 -7l102 -102q7 -7 7 -17t-7 -17zM462 767v0
q-5 0 -8.5 -4t-3.5 -8.5t3.5 -8t8.5 -3.5v0q111 0 205 -54.5t148.5 -148.5t54.5 -205q0 -115 -60 -212v-1q-2 -3 -2 -6q0 -5 3.5 -8.5t8.5 -3.5q7 0 11 7q62 103 62 224q0 117 -57.5 216.5t-157 157.5t-216.5 58zM462 671q-91 0 -168 -45t-122 -122.5t-45 -168.5t45 -168
t122 -122t168 -45t168.5 45t122.5 122t45 168t-45 168.5t-122.5 122.5t-168.5 45zM462 24q-129 0 -220 91t-91 220t91 220.5t220 91.5t220.5 -91.5t91.5 -220.5t-91.5 -220t-220.5 -91z" />
    <glyph glyph-name="uniE677" unicode="&#xe677;" 
d="M453 657q-88 0 -162.5 -43.5t-117.5 -118t-43 -162.5t43 -162.5t117.5 -117.5t162.5 -43t162.5 43t118 117.5t43.5 162.5t-43.5 162.5t-118 118t-162.5 43.5zM598 309l-121 -120q-10 -10 -24 -10t-24 10l-120 120q-10 10 -10 24t10 24l120 121q10 10 24 10t24 -10
l121 -121q10 -10 10 -24t-10 -24zM510 758q-2 1 -5 1q-11 0 -18.5 -7.5t-7.5 -18t7.5 -18t17.5 -7.5q94 -5 172 -53.5t123.5 -129t45.5 -175.5q0 -121 -74 -217q-8 -8 -8 -19t7.5 -18.5t17.5 -7.5q11 0 18 7v1l2 1q1 1 1 2q87 111 87 251q0 107 -51.5 199t-140 147.5
t-194.5 61.5z" />
  </font>
</defs>
</svg>
